<svg xmlns="http://www.w3.org/2000/svg" xmlns:xlink="http://www.w3.org/1999/xlink"><symbol id="ins-logo" viewBox="0 0 11 11"><path fill="#fff" d="M10.768 3.174a3.963 3.963 0 0 0-.252-1.311 2.647 2.647 0 0 0-.622-.957 2.647 2.647 0 0 0-.957-.623 3.963 3.963 0 0 0-1.31-.25C7.05.005 6.866 0 5.4 0 3.933 0 3.75.006 3.174.032a3.963 3.963 0 0 0-1.311.251 2.67 2.67 0 0 0-.957.623 2.66 2.66 0 0 0-.623.957c-.157.42-.242.863-.25 1.31C.005 3.75 0 3.934 0 5.4c0 1.467.006 1.65.032 2.226.01.448.094.892.251 1.311.136.36.349.687.623.957.27.274.596.487.957.623.42.157.863.242 1.31.25.577.027.76.033 2.227.033 1.467 0 1.65-.006 2.226-.033a3.963 3.963 0 0 0 1.311-.25 2.761 2.761 0 0 0 1.58-1.58c.157-.42.242-.863.25-1.31.027-.577.033-.76.033-2.227 0-1.467-.006-1.65-.033-2.226zm-.972 4.408a2.987 2.987 0 0 1-.186 1.003A1.788 1.788 0 0 1 8.585 9.61c-.321.119-.66.182-1.003.186-.57.026-.74.031-2.182.031s-1.613-.005-2.182-.031a2.987 2.987 0 0 1-1.003-.186 1.673 1.673 0 0 1-.62-.404 1.673 1.673 0 0 1-.405-.621 2.987 2.987 0 0 1-.186-1.003C.978 7.012.973 6.842.973 5.4s.005-1.613.031-2.182a2.99 2.99 0 0 1 .186-1.003c.087-.234.225-.446.404-.62.175-.18.387-.318.621-.405.321-.119.66-.182 1.003-.186.57-.026.74-.031 2.182-.031s1.613.005 2.182.031a2.99 2.99 0 0 1 1.003.186c.234.087.446.225.62.404.18.175.318.387.405.621.119.321.182.66.186 1.003.026.57.031.74.031 2.182s-.005 1.613-.031 2.182zM5.4 2.627a2.773 2.773 0 1 0 0 5.546 2.773 2.773 0 0 0 0-5.546zm0 4.573a1.8 1.8 0 1 1 0-3.6 1.8 1.8 0 0 1 0 3.6zm3.53-4.683a.648.648 0 1 1-1.296 0 .648.648 0 0 1 1.297 0z"/></symbol><symbol id="htz-home-logo" viewBox="0 0 101 100"><path fill="#CF1F25" d="M99.228 59.281c0-.1.025-.174.05-.274 0 0 .125-.025.025 0l.125-.025c.025 0 .05-.025.074-.025h.025c.075-.025.025 0-.025 0h-.149c-.05 0-.05 0-.075.025v-.05h.125-.025c-.125.025-.025.025-.05.025h.075c.025 0 .174-.025.199-.05h-.075c-.025 0 .15-.025-.025 0-.1 0-.15 0-.199.025.075-.025.299-.025.324-.05h-.2c-.05 0-.099.025-.124.025h.224-.05c-.025 0 .2-.025.1-.025h-.025c-.2 0 .174 0-.15-.025h-.124.1s.05 0 .075-.025c-.2-.025-.075-.025-.125-.05.025 0 .075 0 .075.025.174.025-.125-.025-.1-.025h-.025.05s.1.025.15.025c-.1-.025.099 0 .05 0 .074.025.049 0 .049 0h-.075c-.05 0-.05-.025-.1-.025.026 0 .05 0 .075.025-.05 0-.1-.025-.149-.025-.025-.024.299.05.249.05l-.124-.025c.199.05.124.025.199.05-.05-.025-.1-.025-.2-.05.05 0-.05-.025.075 0l.05.025c-.075-.025.199.05.075 0l-.175-.05c.025 0 .025 0 .025.025l-.15-.05c.026 0 .05.025.125.05-.05-.025-.074-.025-.174-.05 0 0-.025-.024-.025-.05.05.026.1.05.15.05h-.025c.025 0 .025 0 .1.025.024 0-.05-.024-.05 0l.174.05-.075-.025c.124.025.1.025.2.075.099.025-.15-.05-.026-.025-.05-.025-.15-.05-.199-.075.075.025-.075-.024-.1-.05-.024-.024-.05-.024-.05-.024.026 0 .1.05.15.074-.075-.024-.124-.05-.15-.05-.049-.024 0 0 0 0-.049-.024-.049-.024-.074-.024 0-.025-.025-.025-.025-.05 0 0 .025.025.05.025.15.075.124.05.174.1h-.025l.025.024s.125.05.05 0c.075.025.2.1.224.1.025 0-.05-.025-.15-.075 0 0 .324.15.175.075 0 0-.025 0-.05-.025-.025 0-.025 0 0 0-.025 0-.249-.124-.174-.075-.15-.075-.025-.025-.1-.05.1.05.224.1.299.15-.05-.025-.05-.025-.075-.025l.125.05.025.025-.05-.025c-.025 0-.224-.125-.1-.05l-.199-.1c.075.025-.05-.024-.15-.074.026 0 .125.074.15.074l.05.025s-.025-.025-.05-.025h-.025s.075.05.1.05c-.05-.05.025 0-.05-.05-.025 0-.05-.024-.124-.074.149.1.05.05.025.025.025 0 .025.025-.075-.05-.075-.05-.025 0 0 .025-.05-.025-.1-.05-.124-.075v-.05c.05.025.149.1.199.125 0 0 .025 0 .025.025 0 0-.025 0-.025-.025l.05.025c.024 0 .05.025.074.05h-.025l.05.024c.075.05.05.025 0 0-.075-.05-.174-.124-.15-.075a3.25 3.25 0 0 1-.248-.15c-.025-.274 0-.673-.025-1.122.025.025.075.05.1.1v-.05c-.026-.025-.05-.05-.075-.05v-.125h.398-.15.2-.224.224-.274.224-.15.175-.174.298-.224.174-.348.398-.298.224-.175.249-.199.075-.2.05-.074.025-.1.05-.1.224c.075 0 .05 0 0 0h.075-.05.05-.1.05c.025 0 .025 0 0 0h.2-.175.05c-.025 0-.025 0 0 0h-.05c.025 0 .025 0 0 0h.05-.15.15-.075.025-.025c.025 0 .025 0 0 0h.15-.175.125-.174.024-.024.099-.05.1-.174.274-.225.15-.15.175-.05.05-.125.15-.125.1-.15.075-.075.125-.05.124c-.1 0 .175 0 0 0h-.248.149-.15.175-.175.076c-.199 0 .374-.025.1 0h.025-.15.175-.1.15-.025.024-.298l-.075-.025h-.149l.05.025c.024 0 .024.025.05.025h-.1v-.05c.05 0 .1.025.124.025-.025 0-.075-.025-.1-.025.025 0 .025 0 0 0h.498-.124.149-.124.099c-.05 0-.225-.025-.25-.025h.175-.174c.024 0 .174 0 .248.025h-.05.125c-.1 0 .174 0 0 0h.05-.05c-.15 0-.1 0-.224-.025h.15-.2.2c-.025 0-.025 0-.125-.024h-.075.1c-.2-.026.373.024.1 0h.024-.099.025-.025.124-.075.025c.25.024-.074 0 .15 0h-.1.075-.075c.025 0 .025 0 0 0h-.099.248c.025 0-.199 0-.273-.026h.199-.1.075-.175.175-.124.024-.149.099c.274 0-.223-.024.125 0-.124 0-.2-.024-.249-.024.224 0 .025 0 .249.025-.075 0-.174 0-.224-.025h.125-.1.075-.025.025-.025.05-.15.1-.025.05c.1 0 0 0-.05-.025.05 0 .1 0 .124-.025h-.224c.1 0 .175 0 .224-.025-.1 0-.199.025-.273.025h.248c-.074 0-.024-.025-.149 0 .124-.025-.025-.025.174-.05h-.174c.274-.025.025-.025.299-.05-.224.025-.1-.025-.25-.025h.05a.418.418 0 0 0 .125-.05c-.1.025-.174.025-.224.025h-.025c.1-.025.174-.025.299-.05-.15.025-.15 0-.299.05.125-.025.05-.025.224-.05-.249.05-.05 0-.199.025.124-.05.224-.05.15-.05.074-.025.149-.025.149-.025 0-.025-.174.025-.274.05-.025 0 .15-.05.224-.075-.05 0-.224.025-.2.025.026 0 .05-.025.076-.025-.125.025-.05 0-.125 0h-.125c.025 0 .025 0 .1-.025l-.05.025c.1-.025.125-.05.125-.05h.025c-.05 0-.075.025-.125.05.1-.025.125-.025.125-.05h-.025c.025 0 .05-.025.124-.05.05-.025-.074 0-.05-.025-.05.025-.1.025-.124.05h-.05c.1-.05.274-.1.15-.075-.05.026-.15.05-.2.075h-.024.049l.175-.05c.025-.025-.274.1-.15.025.075-.025.075 0 .075-.025.15-.074-.1.025-.1.025l.175-.074h-.075s-.025-.025-.05-.025c.025 0 .05-.025.075-.025-.075 0 .025-.075.124-.15l-.05.025.025-.025c.05-.05.1-.125.125-.2v-.075l.025-.05v-.05c0-.1-.05-.124.074-.124h-.1c-.074-.025.05 0 .075-.025h-.124c-.025-.025-.025-.05-.025-.075h.025v-.025h-.075.1l-.025-.025c.05-.05.15-.075.2-.124 0 0-.076-.025-.15-.025l-.025.025c0 .05 0 .074-.05.124-.025 0-.075-.025-.124-.025h.149c.025-.025-.124-.075-.15-.1.05 0 .125 0 .026-.024h.1-.052.226-.05v.025h-.05c0-.025 0-.025.025-.05-.15-.05.074-.075-.15-.1.175.025.175-.025.125-.075h.05v-.025h.074c0-.025-.05-.05-.15-.05.25-.025-.223-.05.125-.075l-.149-.075c0-.025 0-.025.025-.05h.124c-.025 0-.05-.024-.074-.024h.025-.025c-.05-.025-.1-.025-.125-.05h.025c.2 0 .15-.025.15-.05h-.075c-.025-.025.025-.075-.075-.1h.05s.025-.025-.075-.025h.025-.05c-.024-.025-.024-.05.1-.05h-.05c-.025 0-.025 0-.025-.025h.05c-.025-.025-.075-.025-.1-.025h.125c.025-.025.05-.05.025-.1h.1c0-.024-.399-.024-.424-.05h.2c0-.05.174-.074 0-.124h.099c0-.025.15-.075-.15-.075.2 0 .026-.05-.074-.05h.15c-.125-.025-.2-.025-.225-.025h.075c.025 0 .05 0 .075-.025h-.1.075v.025c.1-.025 0-.025-.05-.025.05 0 .1 0 .124-.025l-.224-.025h.224-.074s-.025-.025-.05-.025h.075c-.075 0-.05-.025-.125-.025.05 0 .025-.025.05-.025 0 0 0 .025-.025.025.124 0 .15-.025.324 0-.075-.025-.224-.025-.25-.05 0 0 .026 0 .026-.024h.049c.025 0 0 0-.024-.026h.124-.075c.075 0 .05-.024.05-.024h-.124.075c.074-.025.024-.025-.026-.025.025 0 .05 0 .075-.025h-.075.05c-.025 0-.025-.025-.05-.025h.125-.125s-.024-.025-.05-.025h.1-.174c.124-.025.224 0 .15-.025h.149c0-.025-.15 0-.25 0h.026c-.025 0-.025 0-.025-.025h.199c-.025 0-.075 0-.125-.025h-.099.075-.05c.074-.025.025-.05-.05-.05h.075-.1c-.025 0-.05-.025-.075-.025h-.049c-.025 0-.025 0-.05-.025h.05c.025 0 .025.025.1 0l-.076.025c.274-.025-.024.025.274 0 .05-.025-.074-.025-.05-.05h-.248.05v-.025c.099-.025.348-.025.174-.05h-.15.025-.075v-.025h.2c.025-.025-.25 0-.15-.05h.025c.05 0 .05.025.075.025.124-.025 0-.025-.075-.025h.15s-.025-.025-.05-.025h-.05.1c-.025-.024-.075 0-.1 0 .025 0 .025 0 0 0h-.025c-.025 0-.025 0-.025-.024 0 0 .025 0 .025-.025h.1c-.075-.05.025-.1.124-.125h-.15.1c.05-.025-.1 0-.15 0 0 0 .076-.025.125 0a.267.267 0 0 1-.149-.05h.025c-.025 0-.025-.025-.05-.025 0-.025 0-.025.05-.05h.05c.025 0 .05 0 .05-.025-.025 0-.1-.025-.175-.025h.05-.025c.075 0 .174 0 .224-.025h-.15.2-.224.224-.274.224c-.075 0-.025-.025-.15 0 .125 0-.024-.025.175-.025h-.174c.274 0 .025-.025.298-.025-.224 0-.1-.025-.248-.025h.05c.024 0 .099 0 .124-.024h-.349c.2-.026.224 0 .399 0h-.3c.125 0 .05 0 .225-.026h-.2c.125 0 .225 0 .15-.024h-.124.224-.2.075c-.074 0-.074 0-.074-.025h-.1.05-.075.05-.025.025-.025.299c.05-.025-.075-.025-.05-.025h-.224.05c.124 0 .298-.025.149-.025h-.174.1-.05.074c-.025 0-.05-.025-.1-.025.026 0 .026-.025.026-.025h.174-.125.025v-.025c.025 0 .05-.025.1-.025h-.075.025-.025l-.025-.025-.025-.025h-.074.05l-.05-.025h.149c-.1 0 .174-.025-.025-.05h.05c0-.025-.025-.025-.025-.05h.125-.15.075-.1.05-.099.149-.174.05-.025c.05 0 .124-.025.174-.025l-.1-.025h.1c-.15 0 .149 0 .025-.025H99.8h.025l-.025-.024h.1c.024-.026-.05-.026-.05-.05h-.025v-.025h.05c-.1 0 .174-.025-.025-.025h.05c0-.025-.05-.025-.075-.05.025-.025.025-.05.025-.075 0-.025-.05-.05-.125-.05.075-.025.125-.025 0-.025h.025-.15.175c-.15 0-.075-.025-.075-.025l.075.025c-.025 0-.025-.025-.025-.025.224-.025-.1-.025.125-.075h-.149c-.025 0-.025 0-.025-.025-.05-.124.05-.25-.074-.374.05 0 .1 0 .074.025.125-.025 0-.125-.1-.125 0-.025.1 0 .15-.025.05-.025-.025-.05-.05-.074 0 0 0-.026.025-.026s.05 0 .05.026c-.05-.026.025-.1-.124-.075.025-.025.025-.05 0-.075.05-.05.124-.05.174-.15-.1.05-.15.025-.125-.05h.05-.124c.025 0 .05-.025.05-.025h.074v-.025c.05 0 .1-.025.125-.025.024 0-.175-.025-.25-.025h.176-.05.125-.199c.05 0 .074 0 0 0h.099c-.05 0-.025-.025-.1-.025h-.024.049c.1 0 .025-.024-.074-.024h.124c.075 0-.15-.026-.025-.026h.05c-.05 0 .025-.025-.124-.025h.049c.025 0 .025 0 0-.024h-.074c.124 0 .124 0 .074-.025h.1s-.025-.025-.075-.025l-.025-.025h.05-.05l-.024-.025h.074-.075s.025-.025.075-.025h-.124c.149 0 .1 0 .124-.025h-.15.026l-.05-.025h.074-.025.074c-.074 0-.074 0-.124-.025h.15c.024 0 .049-.025.024-.025h.1s-.174-.025-.299-.025h.2l-.026-.025h.05s.124-.025-.075-.025l-.024-.025h.024-.024c-.025 0-.025-.025-.05-.025h.025-.05c-.025 0-.025-.025-.05-.025h.274c-.1 0-.299-.025-.25-.025h.175-.15v-.025h.076c-.025 0-.05-.025-.075-.025 0 0 0-.024.025-.024h.025s0-.025-.025-.025c.025 0 .05-.025.1-.025-.075 0-.1-.025-.125-.05v-.1c0-.025 0-.05-.025-.075.025-.025.05-.025.075-.05h-.075c0-.025.025-.025-.075-.025l.025.025h-.075.025-.025c-.024 0-.074-.025-.1-.025h.1-.124c-.025 0-.025 0-.05-.025.174-.05.224 0 .398-.025-.149.025-.174-.075-.298-.05.025 0 .025-.025.05-.025h.149c-.025 0-.075-.025-.124-.025.024 0 .024 0 .05-.024h.074l-.025-.025h.05-.05c-.025-.025-.05-.025-.075-.025l-.025-.025V50.1h.025c.025 0 .05 0 .1.025-.025 0-.05-.025-.075-.025.025-.025.05-.025.075-.025.025-.025.05 0 0-.075.025-.025.075-.025.1-.025l.05.05c0-.025-.026-.05-.05-.05-.025 0-.05-.025-.075-.025-.05 0-.1.025-.15.025l-.05-.05c-.024-.025-.024-.075-.05-.1h.002V49.8l-.025-.025-.025-.024c.2.024.075-.026.249-.05l-.05-.05-.1.025c0-.025-.05-.05-.074-.1l.025-.025.075.025-.025-.1-.075.05c0-.025 0-.025.025-.05h-.025v-.05c.025-.025.075-.025.1-.025h-.125v-.05h.1-.05c.025 0 .05 0 .075-.025-.075-.025 0-.05-.125-.05.025 0 .075-.025.1-.025-.025-.024-.05-.05-.05-.074h.025c0-.025-.025-.025-.05-.025v-.25c.124 0 .025.075.174.05-.025-.075-.15-.15-.174-.224v-.275c0-.125 0-.25-.025-.35v-.074c0-.025 0 0 0 0v.05-1.048.05l.025-.025c0-.025.025-.05.025-.075l.025-.05c.025-.05.025-.1.025-.125.025-.075.025-.15.025-.2.025-.174.05-.349.05-.523h.099v-.649h.05-.05.05-.05.05v.2s0-.025.025-.15v-.025h.025-.025.025-.025.099-.075.075-.025.025-.025.099-.149.024-.024.149-.15.05-.05.124-.124.05-.074.075-.1v-.125h.025-.025.025-.025.025v-.025h-.025v-.125c.025-.024.05-.024.074-.05-.024 0-.05.026-.074.026.025 0 .05-.025.124-.05l-.05.025h-.024.024-.024c-.025 0-.025 0-.05.025.05-.025.149-.05.224-.075a.75.75 0 0 0-.224.075v-.025c.025 0 .05 0 .074-.025l-.074.025c.074-.025.149-.025 0 0 .273-.025.149-.025.149-.025h-.1c.175-.025 0 0 0-.025h-.05.25-.249.124c-.299-.025.1 0-.124-.025l.174.025s.05 0-.15-.025h-.05c.026 0 .15.025.175.025-.124-.025-.025 0-.174-.075.1.025.249.075.224.05H99.8a.637.637 0 0 1-.174-.075c.1.025.174.075.124.05l-.075-.025c-.05-.025.05.025.075.025 0 0-.05-.025-.075-.025h-.049s.025 0 .025.025l-.025-.025s.025 0 .05.025h.024l.025.025-.025-.025.1.05c-.025 0-.05-.025-.075-.05-.025 0-.025-.025-.025-.025s.025 0 .025.025c0 0-.025 0-.025-.025.025.025.05.025.05.05.125.075.15.075.15.1l-.05-.025c.124.075-.05-.05-.125-.075 0 0 .025 0 .025.025-.025 0-.025-.025-.025-.025H99.7s-.024 0-.024-.025c0 0 .024 0 .024.025 0 0 .025 0 .025.025l.15.1c-.025-.025-.025 0 0 0a.306.306 0 0 1-.075-.05c-.05-.025-.05-.025-.1-.075.025.025.05.05.075.05-.025-.025-.05-.05-.075-.05.025.025.05.025.075.05-.025-.025-.05-.05-.075-.05v-.025l.025.025s.025 0 .025.025c-.025 0-.025-.025-.025-.025l.025.025h.025c.05.025.075.075.1.075-.025-.025-.025-.025 0 0 .024.025.024.025.05.025l.024.025s-.025 0-.025-.025c.025.025.05.05.125.075-.025-.026-.05-.05-.1-.05 0 0-.224-.175-.199-.175.1.075.174.15.15.125 0 0-.1-.075-.15-.15v-.025l.1.1.025.025-.125-.125.025.025c.075.075.025.025-.025-.05v-.025l.025.025c-.025-.025-.025-.025-.025-.05v-.05l.025.025-.025-.025v-.075.075l-.05-.05v-.474c0-.174 0-.374.025-.573-.074 0-.124-.026-.199-.026l.1-.024.05-.025h.024v-.175h-.049l-.075.05-.15.075-.074.05h-.025c-.05 0-.075 0-.124-.025h-.025c-.075.025.348-.125.547-.175 0-.075 0-.175-.025-.25 0-.249-.024-.523-.024-.823.099-.025.174-.05.273-.075h-.1c.125 0 .225 0 .15-.025h-.123c-.05 0 .124 0 .224-.025h-.2.075c-.15 0 0-.024-.199-.024h.05-.15.125-.124.174-.075c.274-.026-.025 0 .274 0 .05 0-.075 0-.05-.026h-.224c-.174 0 .423-.024.2-.024h-.225.199c-.025 0-.15-.025-.174-.025h.15c-.075 0 .024-.025.124-.05h-.2.125c-.124 0-.274-.025-.1-.025h-.123.025c.075-.025-.075-.025.15-.05-.2 0 .099-.025-.2 0 .15-.025.2-.025.299-.025h-.224.15-.15.174-.174c-.075 0 .1-.025.174-.025h-.124.149-.124c.1 0 .1-.025.05-.025h.099c.025 0-.05-.025-.05-.025-.05 0-.224.025-.249 0h.174-.174.225-.05.124c-.1 0 .174-.025-.025 0h.05s-.05-.025-.075-.025h-.224c.025 0 .075-.025.125-.025h.024-.024.148-.149.074-.074.05c-.026 0-.026 0 0 0h.05c.148 0-.175 0-.175-.025h.075-.1c.05-.025.299-.025.15-.05h-.175.15c-.224 0 .024-.025-.1-.025h.075-.025c.298-.025-.05-.025.174-.05h-.149c-.1-.024.124-.05.199-.074.025 0-.448.025-.25 0H100c-.15 0-.05-.025-.1-.05l-.348-.1v-.025c0-.025.025-.025.025-.05.025-.025.025-.075.05-.125.025-.075.05-.1.074-.124.05-.025.15-.05.175-.075 0 0-.1 0-.175-.025h.175-.125.05-.075.075c-.05 0-.025-.025-.1-.025 0-.025.025-.025-.074-.05h.074c.125 0 .025-.025-.074-.025h.124c.075 0-.15 0-.025-.025h.05c-.05 0 .025-.025-.124 0 .05 0-.05-.025.025-.025h-.05.224c.025-.125.025-.274.05-.424.024-.15.024-.324.024-.424 0-.125.025-.225.025-.35.025-.174.025-.324.05-.498l-.224-.026h.025l.124-.024h.025v-.025c-.025.025-.074.025-.124.05H99.8l-.124-.025h-.05.149c-.075 0-.075-.025-.124-.025h.099-.025.075c.025-.025.05-.025.025-.05h.1s-.125 0-.225-.025c.15-.05.25-.075.299-.1v-.075l-.075-.699c0-.324.075-.598.1-.249.05-1.447-.1-.075-.15-.774v-.523h.025-.024v-.075h.149-.05v-.025H100v.025c.1 0 .025-.025-.025-.025h.1-.1.1-.1v-.025h.05-.05v-.025h.1-.1c.1 0-.025-.025.199-.05-.224.025-.124-.025-.224-.025h.025c.025-.025.1-.025.125-.05-.075 0-.125.025-.15.025v-.025c.05 0 .125-.025.199-.025-.124.025-.149.025-.199.025.025 0 .05 0 .15-.025-.2.025-.1.025-.15.025.1-.025.174-.025.1-.025.074-.025.149-.025.149-.025 0-.025-.149.025-.274.05.05-.025.15-.025.199-.05-.049 0-.224.025-.199.025.025 0 .05 0 .075-.025h-.075v-.025c.05 0 .075 0 .075-.025-.025 0-.05.025-.075.025v-.025c.075-.025-.05.025.175-.05.049-.05-.075 0-.025-.05-.05.026-.1.026-.125.05v-.025c.1-.05.224-.074.1-.05-.025 0-.075.026-.1.026v-.025l.075-.025s-.05 0-.075.025h.025c.1-.05.025-.025-.025 0l.1-.025h-.1v-.025c.025 0 .05-.025.1-.05-.075 0 .025-.075.124-.15l-.149.05s.075-.025.099-.05c.05-.05-.099.05-.149.075 0 0 .075-.05.125-.075-.05.025-.1.025-.15.025v-.05s.025 0 .025-.025l.05-.025c.025-.025-.025 0-.075.025v-.1l.075-.075c-.15.1-.025 0-.075.026v-.026c.05-.05.1-.074.15-.124 0 0-.075.05-.15.075l.075-.05-.075.05.075-.05-.05.025s-.025 0-.025.025v-.025c.025-.025.05-.025.075-.05l-.075.025c.025 0 .025-.025.05-.025-.15.075.124-.075 0 0 0 0-.025.025-.05.025v-.025l.025-.025h-.025v-.574c0-.424 0-.848-.025-1.297v-.375h.025-.025v-.025h.025-.025v-.174c.025 0 .025 0 0 0v-.1c0-.15 0-.324.025-.474v-.15.2s0 .025-.025 0H99.9v-.575c.05-.049.075-.099.075-.124v-.025s0-.025.025-.05c0-.025.025-.05.025-.074h.025s.025-.026.05-.026c.049-.024.149-.024.174-.05.025 0-.15 0-.249-.024H99.9h.274-.05.125-.174c.049 0 .049 0 0 0h.099c-.05 0-.025 0-.099-.025H100h.075c.124 0 0 0-.1-.025h.174-.099s-.05 0 0 0H100c.199 0-.224 0 .1-.025h-.075s.025 0 .05-.025h-.15.175-.224.149H100c.025 0 .025 0 0 0h-.05.15-.125.125c.024 0 .049 0 .024-.025H99.9h.125s.174-.025 0-.025h.099s.15-.025-.149-.025c.199 0 .025 0-.075-.025h.15-.15v-.025h.299c-.099 0-.299 0-.249-.025h.174-.199.15c-.05 0-.05 0-.15-.025v-.025c.1 0 .075 0 0 0h.15-.15.199-.199.199-.224.175c-.075 0-.025 0-.15-.025h.175-.175.299c-.224 0-.1-.025-.224-.025h.174-.274.025-.025.324c-.149 0-.149 0-.299-.025h.224-.199.249c-.05 0-.224-.024-.199-.024h.075c-.15 0-.025-.026-.175-.026h.025-.025.249c.05 0-.074 0-.025-.024H99.9h.2-.224.224c.024 0-.274 0-.15-.025h-.025.175c-.025 0-.15-.025-.175-.025h.15c-.075-.025.025-.025.124-.05h-.149.074c-.074 0-.174-.025-.174-.025h.05-.05.1c.05 0-.125 0-.174-.025h.099-.025.125-.125c.075 0 0 0 .05-.025h-.025.1H100h.1c-.125 0 .074 0 .099-.025h.05-.149.074-.074.049-.124.149-.124.149l-.099-.025h.124-.1.125c.025 0-.05-.025-.05-.025h-.075.025-.049.124c-.1 0 .174 0 0-.025h.05l-.05-.025h-.1v-.025s.025 0 0 0c0-.025.025 0 .05-.025.05 0 .125-.025.174-.025h-.273.199-.1.174-.174c.05 0 .05 0 0 0h.1-.1.1-.125.05-.05.025-.025.1-.174c.124 0 .099 0 0 0h.124-.05c.1 0 .075 0 .05-.025h.025-.025.025-.025.075-.15.025-.174.1s.174 0 0 0h-.125.15-.25.374-.249.174-.249.175-.224.075-.1v-.025h.025-.025.05-.025.074-.074.1-.15.025-.025c.05 0 .075 0 0 0 .05 0 .075 0 0 0h.15-.15.025c.075 0 .15 0 .224-.024h-.15.125c.099 0 0 0-.05-.026h.125-.224c.1 0 .174 0 .224-.024-.1 0-.2.024-.274 0 .1 0 .199-.025.1-.025h.124c-.075 0-.025-.025-.15 0 .125-.025-.024-.025.175-.025H99.9c.274-.025.025-.025.299-.05-.224.025-.099-.025-.224-.025h.05c.025 0 .099-.025.124-.025-.174.025-.224.025-.348.025.174-.025.224-.025.398-.05-.149.025-.149 0-.299.025.125-.025.05-.025.224-.05-.248.05-.049 0-.199.025.125-.025.224-.05.15-.05.074-.025.149-.025.149-.025 0-.025-.174.025-.274.05-.05 0 .125-.025.224-.05-.05 0-.224.025-.199.025.025 0 .05 0 .075-.025-.15.025 0-.025-.2 0 .026 0 .026 0 .05-.025-.05 0-.074.025-.1.025l.076-.025H99.8v-.025h.075v-.025c.024 0 .024 0 .074-.025l-.074.025c.273-.075-.025.025.273-.075.05-.025-.074 0-.025-.025-.099.025-.149.05-.224.075v-.025c.1-.05.374-.124.2-.074a.59.59 0 0 1-.2.05l.175-.05c.025-.026-.274.074-.15.024.075-.024.075 0 .075-.024.149-.075-.1.024-.1.024l.175-.05c-.025 0-.15.026-.175 0 .05-.024.1-.024.15-.05-.075 0 .025-.074.124-.15l-.149.05s.075-.024.099-.05c.05-.024-.099.05-.149.076 0 0 .075-.05.125-.075-.125.025-.274.075-.1-.025l.05-.025c.025-.025-.075.025-.125.05v-.05c.025 0 .025-.025.05-.05-.025.025-.05.025-.05.025v-.025c.025-.025.05-.025.075-.05 0 0-.025.025-.075.025v-.274l.025-.025c.025-.025.05-.05.05-.075.025-.025 0-.025 0-.025v-.025c.025-.05.124-.1.1-.025.049-.075.049-.15.049-.125h-.049c-.025 0-.1 0-.125-.025 0-.025.1-.025.125 0-.125-.1-.25-.124-.1-.15h.025-.174.049c.025 0 .025-.024.025-.024h.025-.025v-.025c.05 0 .075 0 .125-.025h-.025.05-.05s-.025 0-.025-.025c0 0-.025 0-.025-.025.075 0 .125 0 .199-.025.025 0-.174 0-.224-.025h.15-.15.174-.174c-.074 0 .1-.025.174-.025l-.124-.025h.124c-.149 0 .15 0 .025-.025h-.124c.099 0 .099-.025.05-.025h.099c.025-.025-.05-.05-.05-.075h-.248.174-.174.248-.049.124c-.099 0 .174-.025-.025-.025h.05c0-.025-.05-.025-.075-.05h-.224c.05-.024.15-.024.15-.05h-.2c.125 0 .125-.024.2-.024-.025-.025-.025-.025-.125-.05h-.124c-.025 0 .05 0 .124-.025h.025c-.199-.025.373-.075.1-.1h.025l-.15-.025h.174c-.224-.025.025-.05-.124-.05.373-.025-.025-.05.199-.075h-.099c-.075 0 .049 0 .074-.025h-.124c-.1-.05-.25-.15-.05-.174 0 0 .174-.075 0-.1h.075c.124-.025 0-.025-.1-.025 0 0-.025-.025.1-.025.025 0 .049-.025-.075 0 .075-.025-.075-.025.025-.025-.15 0 .05-.025-.125-.025.2-.025.15-.025.05-.025.075 0 .075 0 .174-.025 0 0-.049-.025-.149 0 .224-.025-.075-.025 0-.05H100c.025 0 0-.025-.025-.05h.075c.025 0-.125 0-.125-.024h.125-.125c-.025 0-.05-.026-.05-.026.225-.024-.024 0 .025-.05h.125c-.05-.024-.05-.024-.05-.05v-.024c0-.025 0-.025-.025-.05v-.025l-.025-.05c0-.025-.025-.05-.05-.075-.05-.05-.099-.125-.174-.15 0-.05 0-.1.025-.124 0-.075.025-.175.025-.25v.325c.025-.125.025-.225.025-.35l.1-.075c0-1.297 0-2.62.024-3.892v-1.746c0-.3 0-.574-.024-.849v-.274h.024v-1.547c0-.424.025-.798.025-1.198l.025-.024v-.175c0-.225.025-.424.025-.624-.174-.599 0-3.717-.174-4.566-.025-.025-.05-.075-.025-.125 0-.024-.025-.024-.025-.05-.1-.074-.05-.2.05-.224v-.075h-.075.075c-.025 0-.05 0-.05-.025h-.025v-.025c.05 0 .05 0 .05.025 0-.025-.025-.025-.025-.05v-.05c0-.025-.025-.075-.025-.1-.025-.124-.025-.349.025-.448a.746.746 0 0 1 .1-.2v-.025c-.1-.274-.025-.474.05-.674l-.025-.025c-.05-.124-.025-.2-.025-.324.025-.25.025-.499.025-.749 0-.15.05-.299.074-.449v-.249c0-.25-.05-.5.025-.749 0-.299.025-.623.025-1.023 0-.474-.05-.823-.1-1.197-.024-.175-.05-.374-.074-.599 0-.1-.025-.225-.025-.324v-.125c0-.075 0-.125.025-.225v-.174l.15-.025v-.25l-.026-.349-.05-.649v-.2c0-.024-.024 0-.024 0h-.1l-.348.026-.647.025-.498-1.947c-.05 0-.075-.024-.125-.024L97.934.2l-.423-.1c-.373 0-.746.025-1.12.025.473 0 .946.075.896.125h-2.19s.025 0 0 0h-.1c-.05 0-.124-.025-.174-.025C94.7.225 94.6.2 94.475.2c-.871-.075-1.518-.15-1.543-.175-1.394.025-2.763.1-4.157.15.075-.05.3-.1.747-.125-1.543.1.05-.15-1.842 0 .274.025-.149.1-.199.125-.199-.025-.472-.025-.796-.05h-.2L86.387.2c-1.12-.025-2.688 0-3.932.025l.324-.1h-3.983s.2.075.125.075h-2.837c-.125 0-.25 0-.374-.025.05 0 .1 0 .15.025h-.871v.05h-.075s.05.174 0 .174c-.249 0-.846-.2-.1-.25-.522 0-1.045.026-1.593.05-.1-.05.274-.074.374-.15-.647.1-2.713-.124-3.634.076l-.1-.05a42.03 42.03 0 0 1-2.513 0h-1.941c-.423 0-.896 0-1.37-.025C63.54.05 63.042.025 62.42 0c0 .025-.025.025-.075.05-.024 0-.05.025-.1.025-.024 0-.049 0-.074.025h-.075l-.05.025c-.025 0-.05.025-.05.025l-.025.025c.025 0 .025.025.05.025h.05c-.025 0-.075.025-.125.025h-.05c-.05 0-.1 0-.174.025-.025 0-.05 0-.174.05l-.05.024h.025l.05.025.05.025h.025-.025c-.025 0-.05.025-.075.025h-.523c-.323-.05-.597-.05-.87-.05-.548-.025-1.12 0-1.643-.05l-.2-.025-.248-.024h-1.319c-.598 0-1.195 0-1.842.024-.871.05-1.02.1-1.02.15 0 .025.024.025 0 .05 0 0-.025.025-.075.025-.075.025-.05.025-.174.025-.125-.125-2.639-.1-1.344-.2h-1.096a8.363 8.363 0 0 1-.347-.074c-.722.05-1.344.1-2.016.124-.174 0-.323 0-.497-.025h-.125c0-.025-.025-.05-.025-.075h-.224v.05h-.124V.3l.025-.025c-.448.025-1.07.05-1.792.1.398.05.87.05.622.1-.348.025-.747 0-1.045 0l.1-.05h-.523c-.025 0-.05-.025-.025-.025l.174-.025c-.25.025-.498.025-.747.05h-1.12V.4c-.025 0-.025.025-.05.025-.895 0-1.816.05-2.712-.025C39.696.324 38.7.3 37.705.25c-1.966-.074-3.807-.1-5.251 0l.2-.024-3.51.124c-1.618-.025.97-.1-.224-.174-.423.025-.821.025-1.195.05h-1.219c0 .025 0 .05-.025.05h-.299c-.274 0-.522-.025-.771-.025-.25 0-.523-.025-.772-.025h-.772c-.074 0-.149-.025-.223-.025l.124.025c-.448 0-.92 0-1.394.025-.398 0-.821.024-1.269.024-.398-.05-.896-.1-1.468-.124h-.822.025c-.025 0-.124-.025-.124-.025h-.498V.1h-.523.025-.522c-.224 0-.448.025-.648.025-.224.025-.448.025-.671.05-.125.025-.224.025-.374.05-.074.025-.174.05-.298.1-.598-.026-1.17-.05-1.743-.026-.298 0-.597 0-.87.025h-.1s-.473.025-.498.025h-2.04c-.1-.05-.225-.075-.399-.1C9.557.1 6.77.1 6.222.126 5.5.2 4.778.075 4.704.175c-.896-.025-1.07.05-1.27.1-.099.024-1.343-.05-1.17 0a.46.46 0 0 0-.248.05H.996s0-.026-.025-.05H.746C.673.274.623.298.549.298c-.1 0-.2 0-.224.025V.35H.299v.698c0 .474-.025.923-.025 1.397L.249 3.468C.224 4.366.174 5.29.174 6.213c0 .424 0 .873-.025 1.322l-.025.773-.024.524.024-.025.025-.025.025-.025v.125H.075v.325c.174-.1-.274.15.124-.075v.2c0 .174.025.374.025.523.025.325.075.524.124.774.075.449.1.973.025 2.47h-.05C.274 12.874.25 12.625.2 12.4c0 .474.025.973.05 1.447h.075c0 .45-.025.899-.05 1.373-.025.648-.075 1.322-.1 1.97H.15c-.025.325-.05.674-.025.999 0 .075.025.174.025.25 0 .049.025.074.025.124 0 .025.025.025.025.05v.025c0 .025.025.05.05.05.025.05.075.075.124.124.025.025.025.025.05.025v.075c-.075.05-.124.125-.174.175-.025.025-.025.05-.025.05v.05l-.025.05-.025.05v.05c0 .05-.025.1-.025.124-.025.25-.025.4-.025.599v1.67L.2 24.1c0 .4.025.774.025 1.174 0 .2 0 .374.025.573v.625H.224c0-.15-.025-.25-.025-.4-.025-.1-.025-.225-.025-.5 0 .1-.025.225-.025.375v.325c0 .1 0 .2-.025.274l.025-.025.025-.025v.125H.1v.1h.1c.024.274.024.548.024.823.025.649.05 1.123.1 1.148-.025.823-.1.174-.15.698-.05.55-.025 1.273 0 1.921.025.325.025.624.05.899v.274c-.05 0-.025 0 0 0h-.05.05-.05.05v.025h-.05.05-.075v-.025c0-.075-.025-.15-.025-.224 0 .05 0 .124.025.224v.025h-.1.1v.025H.1h.125H.05h.175-.1.025H0h.15-.1.1v.025c-.026 0-.05 0 0 0v.075H.1h.05c-.026 0-.026 0 0 0v.05H.073.15.148v.05H.124.15v.025H.124.15.124.15.1c-.024 0 .05.024.05.024h.025H.1c.1 0-.175.025.024 0h-.05s.05 0 .075.025h.199a.506.506 0 0 0-.124.025h.2c-.125 0-.125.025-.2.025.025 0 .025 0 .124.025h.1-.124c.199 0-.374.075-.1.05H.199h.125-.175v.125c.025.998.025 2.295.125 1.771v1.447c0 .225.025.474.025.699 0 .125 0 .225.025.35v.274l-.025.3-.025.199c0 .125 0 .224-.025.35 0 .224 0 .448-.025.673 0 .424 0 .848-.025 1.247.1.674.075 1.897.075 2.77l-.1-.55v.325l.125.599c.025.274.05.474.1.549-.05-.025-.075.1-.1.35-.025.124-.025.274-.025.423 0 .075-.025.15-.025.25 0 .05 0 .075-.025.1v.025c.05 0 .075.024.1.024.05 0 .124.026.174.05h.05v.1H.174c-.025.923.025 2.146.05 2.944l-.075.749c0 .05 0 .075-.025.1h-.05.05c-.024.1-.024.15-.074 0 0 1.447.074 2.77.174 2.52-.025.324-.025.673-.025.998v.324c-.1-.05.025 0-.025-.025v1.198c0 .299.025.623.025.923.025 1.172.075 2.22-.075 2.994.025.374.05.748.075 1.098 0 .174.025.349.025.523 0 .075 0 .175.025.25v.25l-.05.2c-.025.049 0 .074 0 .124v.25c0 .199 0 .374.025.573v1.148c0 .773.025 1.522.025 2.245.025 1.348.025 2.67.075 3.943h-.1c-.05-1.223 0-2.77-.15-2.67C.1 67.19.15 68.189.2 69.087c.1 1.721.125 3.343.05 5.514-.05.923-.1-.524-.125-.849v3.818c0 .624 0 1.247.1 1.921L.3 81.786l.448.225v.025c0 .1.025.2.025.3 0 .074.024.149.024.224.025.25.025.474.05.574-.05-.275-.1-.25-.124-.125 0 .025-.025.075-.025.1 0 .05-.025 0-.025-.025v-.1c0-.125-.025-.25-.025-.35v-.099c0-.025-.05.1-.05.1 0 .05-.025.075-.025.1 0 .1-.024.174-.024.249-.025.15-.025.275-.05.35-.05.149-.1.1-.174-.35 0 .45.05.948.124.873-.025.624-.075.824-.15.2.026.948.05 1.347.075 1.671.025.15.025.3.025.45v.524h.025c.05 0 .125.025.174.025.05 0 .075.024.125.024.025 0 .05.025.05.025h-.4v.774c-.05 0-.074-.424-.124-.649.1 1.048.199 2.096.15 3.843-.026-.1-.05.05-.075-.25 0 1.422.074 2.645.1 3.917.024.649.049 1.323.049 2.021v1.098c0 .4-.025.823-.025 1.272-.075-.399-.1-.424-.124-.2-.025.2-.025.65-.05 1.074.498.025 1.02.05 1.145.1l1.792-.05-.697-.1c1.543 0 2.912-.125 4.23-.05L5.6 99.65l1.543-.025c.025 0 .05.025.075.025l.174-.025h.074c.075.025.175.025.3.05v-.05h.049v-.175h.647v.324c.224-.025.398-.025.597-.05.1-.024.2-.024.299-.05.05 0 .1-.024.15-.024l.074-.025c.025 0 .05 0 .124-.025h.1a.189.189 0 0 0 .1-.05l.074-.075.025-.025s0-.025.025-.05c.224.05-.249.2-.075.25.125-.025.274-.05.473-.075.05 0 .124-.025.2-.025h.124v.075-.025h.522c0 .025.025.025.05.05l.174-.025h.274v.25h.274-.274v-.25.075h.274v.174-.249h.05c1.07-.05.896-.1.771-.125-.124-.05-.199-.1 1.07-.05-.199 0-.1.025-.522.05h1.742c.1 0 .199 0 .249.025h.05c.05.025.099.025.124.025h2.414v.1l-.622.025.896.075.1-.026c.199 0 .373.026.522.026l-.398-.05.1-.025h.472v-.025h.075l.572-.025h.1s.124-.025.1-.025h-.101l-.15-.025h-.024 1.593v.025h.298l.548-.025h.199l.05.025h.05l.149-.025h.174l1.493-.075h.075c.124.025.249.025.398.025.174 0 .324-.025.498-.025.298 0 .572 0 .846.025l-.622-.025c.124-.075.348-.1.672-.075v.076h.124s.025 0 .025-.025h.199c0-.025.025-.05.025-.1v.025s0 .025-.025.025l-.025.025h.05v-.05l.05.075h1.767l-.025-.25s0-.024.025 0l.025.275h.298l-.224.1h1.643c.324 0 .647 0 .996-.025.174 0 .348-.025.522-.05l.125-.025h.298c.647 0 1.37-.025 2.116-.05s1.543-.05 2.439-.075l-.423.075c.199 0 .423.025.697.025h-.025c.348.025.721.025 1.12.05.199 0 .398.025.597.025h.597-.074c.024-.025.05-.025.074-.05l.025-.175v.025c0 .05.025.075.025.125 0 .025 0 .075.025.1h.772c.248 0 .472 0 .696.025.125 0 .224 0 .349.025.423-.05 1.244-.025.746-.125.424.05.822.05 1.22.075.199 0 .398.025.597.025h.349c.149-.025.149-.025.248-.025.399 0 .797.025 1.17.025h.897c.075 0 .1 0 .175-.025l.05-.025h.024v-.025h1.717V99.5c0-.025 0-.05.025-.075 0-.05.025-.075.025-.1l.05.225.672-.075c.224-.025.473-.025.697-.025h1.418c.946 0 1.867.05 2.788.125-.473 0-1.12.05-.747.05l2.862-.025h.025l.25.05-.125-.05h.124v.025-.025h.224l-.124-.05c-.025 0-.05-.025-.075-.025l.025-.175h.174l.15.2.024-.175v.05h.025v.025h.1c.15.025.249.025.348.025l.15.1h.05-.026c.025 0 .025 0 .05-.025h1.145l-.672-.2h.871l.025.175c.124-.025.249-.025.373-.05l-.024-.15c.223 0 .447-.025.696-.05.374 0 .747-.025 1.145-.025.2.075-.025.075-.323.1-.299 0-.648.025-.672.075.273 0 .572-.025.846-.025.15 0 .274-.025.423-.025.05 0 .124.025.174.025l.125-.025c.025 0 .05 0 .074.025v-.025l.175-.05h-.1l.1-.025.024.025.175-.05v.05h-.175c.025 0 .05.025.05.025h.05l-.174.05c.05 0 .074.025.124.025h.174V99.4h.399l.1.025c.074 0 .148.025.223.025h.05l-.075.025-1.07-.075-.1.125 1.295.025-.224.1.697-.1.82.025h.026-.025l-.647-.05.423-.05.473.025-.299-.025c.05 0 .1-.025.125-.025.05 0 .099 0 .149-.025 1.443-.175 3.011 0 4.928-.224-2.215.224-.374.124-.548.274.572.025 1.468.075 1.22.125.796-.1 1.418-.025 2.19.025l.074-.375c.025.05.025.1.025.175l.025.125v.05h.125c.074 0 .149-.025.249-.025.174-.025.348-.025.547-.05.025 0 .1.025.224.025h.423-.025.025c.025 0 .05 0 .05.025v.1s.075.025.1.025c.05 0 .099 0 .149.025h.224c.075 0 .124 0 .15-.025.024 0-.05-.025-.175-.025h-.274l-.075-.025a.25.25 0 0 1-.074-.025c-.025 0 0-.05-.025-.05-.075-.025-.1-.025-.1-.05.025 0 .05 0 .1-.025 0 0 .05 0 .025.025 0 .025 0 0 .075.025.099.025.124.025.199.025h.199c.224 0 .448-.025.672-.025h1.394l.124.025h.324c.124 0 .273 0 .398.025.273 0 .547.025.82.025.548.025 1.12 0 1.693 0l.871-.025h.647s.025 0 0 0h-.049c.025 0 .05-.025.1-.025.149 0 .273 0 .422-.025.747-.025 1.344-.1 1.817-.15H83.5c1.12-.075 1.842-.174 3.186-.224h.846c.398.074-.846.15-.846.15.597.024 1.12.05 1.642.05h.399c.174.024.323.024.498.024.323 0 .671 0 1.02-.025-.15.025-.124.05.025.075l-.025.15.025-.15h.025l.622.1a1.03 1.03 0 0 1-.349.05h.399c.025 0 .025-.025.025-.025l.174.025h-.2l-.024.025h-.847 2.041l-.05-.025H91.04c.2 0 .349-.025.498-.025h-.348l-.175-.125c.25-.025.374-.05.598-.075l.298.15c-.1.025-.224.025-.373.05l.448-.025.1.05h.025l-.125-.05c.299 0 .597 0 .92-.025h.922V99.5h.322v-.05.05h.125v-.05.1h-.125v.025h.125c-.15.025-.299.025-.398.05.124 0 .248 0 .398-.025v-.05c.298 0 .597-.025.896-.025h.498c.149 0 .273-.025.398-.05h.075c.722 0 1.32-.025 1.519-.075l-.672-.05c.149.025-.05.1-.349.125-.174 0-.373.025-.498.025h-.074c-.15.025-.274.025-.398.025a5.593 5.593 0 0 1-.498-.075h.025c-.2-.025-.299-.05-.324-.075l.299-.025h.597c-.025 0-.05-.025-.1-.025a2.508 2.508 0 0 0-.497-.1 5.36 5.36 0 0 0-.896 0v-.024c.348 0 .647 0 .896-.025l.498.025h.124a.923.923 0 0 0 .348-.05c.523.025 1.22.05 1.593.05 0 0 .05-.025.125-.025.05 0 .1.025.149.025h.821v-.774c0-.174-.025-.35-.025-.524-.025-.35-.025-.673-.025-.948.025-.4.05-.324.075-.175v.35c.025.349.05.673.1 1.023-.025.25-.075 0-.1-.05.075.399.125.823.174 1.098l.025.124-.224.05c-.298.075-.398.15-.124.225.05 0 .124-.025.124-.025l.398-.2-.024-.174c-.075-.35-.075-.6-.125-.849-.05-.25-.075-.499-.174-.898 0-.175-.025-.324-.025-.474v-.05l-.025-.025s.025 0 .025.025v-.125l.025.025c.025-.025.05-.075.124-.124v-.699c0-.225 0-.45-.025-.599-.024.175-.074.374-.074.599-.025.2-.025.424-.025.674-.025.05-.025.1-.025.15v-.026c-.025-.025 0-.05 0-.05v-.025c-.05-.972.1-2.47.075-2.794v-.1c.025 0 .025 0 .05-.025.05.075.124.15.174.175v.1c0 .125-.025.25-.025.424l.15.499v-.549c0-.175 0-.35-.026-.574 0 0 0-.025.025-.025a.471.471 0 0 0 .05-.2c0-.05.025-.1 0-.199v-.074l-.025-.05v-.05c0-.025 0-.074.025-.1v-.024s.025 0 0 0c.025 0 .025 0 .05-.025 0-.025.025-.025.025-.025.025 0 .025-.05.05-.075.024-.075.024-.15.024-.25v-.324h-.025c0-.075-.025-.15-.025-.225h.076v-.024h-.075c-.05-.225-.074-.4-.124-.6-.05-.249-.1-.498-.15-.723h.1c0 .075.025.15.025.225.025.2.075.424.1.648 0-.274-.025-.499-.05-.723-.025-.2-.05-.374-.05-.5h-.025c0-.074-.025-.124-.025-.199.05-.174.1-.474.075-.873l-.025-.15c0-.025-.025-.075-.025-.124l-.025-.275-.05-.374h.05l.025.1v-.125l-.05-.324c-.024-.25-.05-.325-.074-.45.05-.124.1.1.124.175.025.05.05.05.05-.025.025-.075.025-.274.025-.549 0-.1-.025-.174-.025-.224 0-.05-.025-.05-.025-.05-.025.025-.05.125-.075.175-.024.074-.05.124-.074.05-.025-.05-.025-.25-.05-.624a5.91 5.91 0 0 1 .075-.65v-.074l.373-.1c.025 0 .025 0 .05-.025-.2 0-.25-.05-.349-.075.175-.025.224.025.399 0-.15 0-.15-.05-.3-.05.125-.024.05-.024.225-.05-.249 0-.05-.024-.2-.05.125-.05.225 0 .15-.05.075-.024.15.026.15.026 0-.05-.175-.025-.274-.025-.05-.05.124-.025.224-.05-.05-.025-.224-.05-.2-.075h.075c-.15-.025 0-.1-.199-.15h.05-.1v-.025h.075c-.025 0-.05-.025-.05-.025v-.05h.025s.025.026.1 0l-.075.05c.274-.05-.025.025.274 0 .05-.074-.075-.074-.05-.124-.1-.025-.15 0-.224 0-.025 0-.025-.025-.025-.025v-.025c.05-.05.398-.05.224-.1-.075 0-.15-.025-.199-.025v-.05l.174.025c.025-.05-.15-.05-.174-.075v-.025l.025-.025c.075 0 .075.05.075.05.149-.05-.075-.025-.1-.05h.174c-.025-.05-.1-.1-.15-.15v-.05h.1c-.074-.099.025-.199.125-.274l-.15-.025s.075-.025.1 0c.05-.025-.1 0-.15-.025 0-.025.076-.025.125-.025-.124-.05-.273-.174-.1-.249l.05.025c.05-.05-.298-.05-.174-.1h.025c.075-.1-.075-.224.15-.3-.2-.024.099-.099-.2-.124.15-.05.2-.05.299-.125.025-.025-.174-.025-.224-.075h.15l-.15-.05.174-.024-.05-.025s-.074.025-.124.025c-.075-.05.1-.1.174-.1l-.124-.1c.05 0 .075.025.124.025-.15-.05.15 0 .025-.05h-.124c.1-.025.1-.075.05-.125h.099c.025-.075-.05-.15-.05-.25-.025.026-.074.026-.15.026l-.024-.025.025.025c-.05 0-.1 0-.1-.025h.175c-.1-.025-.075.025-.175 0 .025 0 .025 0 .05-.025h-.05c.05-.025.175 0 .2 0l-.05-.05h.124c-.1-.025.174-.075-.025-.1h.05c0-.075-.05-.125-.075-.2-.149 0-.1-.024-.224-.05.05-.05.15-.1.15-.174-.025-.025-.05-.025-.075-.025 0-.025.025-.025.05-.05h.025v-.025c.025 0 .05-.025.05-.025l.05.025c-.026-.025-.026-.025-.026-.05h-.074v-.025h.05-.05c0-.025-.025-.025-.05-.05.025 0 .05 0 .05.025-.025 0-.025-.025 0-.025h.05c.149-.05-.175-.025-.175-.074.1 0 .174-.025.15-.025 0 .025-.1.025-.175 0 0-.1.374-.2.15-.275h.025l-.025-.025c.025 0 .05-.025 0-.05h-.075l-.05-.025c.025-.05.1.025.174 0-.149-.075-.074-.124-.074-.15.05-.024.1-.024.124-.05h-.15c.026 0 .076-.024.076-.024h.05-.05c.149-.075-.125-.175.1-.25h-.1c-.075-.025.05-.025.074-.05-.074 0-.074.025-.124 0v-.025c-.075-.174.15-.324.224-.499.025-.05-.324-.05-.299-.1h.1c-.025 0-.075 0-.1-.024 0 0 .025-.025.05-.025l.174.025c-.1-.05-.1-.125-.1-.175l-.323-.025c.1 0 .075-.025 0-.025v-.15h.05c-.1 0 .05 0-.05-.025h.1-.1v-.1c.025 0 .1 0 .05-.024h-.075v-.025h.025-.025v-.05h.075s-.05 0-.075-.025c.025-.324.05-.524.125-.499-.05-.3-.175-1.746-.175-2.645.075.524.125.374.125-.05.15 0 .299.025.398 0l-.15-.025h.125c.1 0 .025 0-.05-.025h.125l-.224-.025c.1 0 .174.025.224 0-.1 0-.2 0-.274-.025h.224c-.075 0-.025-.024-.15-.024.125 0-.024-.025.175 0h-.124.024c.125 0-.025-.025.224 0-.074 0-.124 0-.149-.025l.075-.025c-.025 0-.05.025-.075.025.025 0 .025 0 .05-.025-.025 0-.025 0-.05.025l.1-.025h.025-.025c-.025 0-.05.025-.1.025h.025-.025.025c.025 0 .025 0 0 0h-.025.025c.025 0 .05-.025.025 0h.025l.05-.025h.024-.024.024-.024c.024 0 .05 0 .099-.025-.025 0-.075.025-.1.025h-.024c-.1 0-.125-.025-.224-.025 0 0 .025 0 0 0h-.025.148-.05.125-.125c.025 0 .025 0 0 0h.075-.125.175-.125c.075 0 .25.025.15 0h-.05c-.025 0-.025 0 0 0h-.075.125-.075.149-.15.176s-.175 0-.275-.025h.05-.05.1-.05.174a1.34 1.34 0 0 1-.199-.025h.075c-.15 0 0-.025-.2-.05h.05-.174.025-.05.025-.025.175-.125.075c.05 0 0 .025.124 0h-.074.273c.05-.025-.074-.025-.024-.025h-.224c-.175-.025.423 0 .199-.025-.075 0-.224 0-.25-.025h.026-.025.224c.025-.025-.274-.025-.15-.025h.075c.15 0-.1 0-.1-.025h.175c-.025-.025-.15-.025-.174-.05h.149c-.075-.025.025-.05.124-.075h-.199.125c-.025 0-.05 0-.1-.024.025 0-.025 0-.075-.025-.024 0-.024-.025.05-.025h.05c.025 0-.05 0-.1-.025h.026l.025-.025h.05-.05v-.025h.075-.075s.025 0 0 0h.1c-.125 0 .075-.025.1-.025h.05-.252.1-.025.076-.15.175l-.125-.025h.124c-.149-.025.15 0 .025-.025h-.1c.05 0 .05 0 .05-.025h.101c.025-.025-.05-.025-.05-.05h-.024v-.025h.074c-.1 0 .174-.025 0-.025h.05s0-.025-.025-.025h-.025.025c-.025 0-.05-.025-.05-.025s-.025-.025-.074-.05V75.3h.025v-.025h-.025v-.025c-.025 0-.05-.024-.075-.024 0 0 .025 0 0 0h-.025c.025 0 .075 0 .1-.025h-.125s-.025-.025-.05-.025c.025 0 .05 0 .1-.025-.05 0-.075-.025-.124-.025h.124c.025-.025.05-.05.025-.075h-.026c-.025-.025-.05-.025-.075-.025 0 0 .025-.025.05-.025h.05c0-.025-.025-.05-.025-.075h.025c0-.025.1-.05-.05-.05h-.025l-.025-.025h.05-.15.125c-.1-.05 0-.075.075-.15 0 0 .025 0 .025-.024h.1-.075c.074-.05.1-.1 0-.125h.025c-.05-.025-.075-.025-.125-.025h.025-.025c.025-.025.1 0 .15-.05-.225 0 .024-.15-.1-.15.199-.1.174-.174.15-.2-.026-.05-.075-.05.049-.174l-.1.075c-.1.05.05-.05.075-.075-.075.05-.075.075-.124.1-.1-.05.074-.325.174-.599 0-.025-.025-.025-.025-.025-.025-.025-.423.45-.299.225l.15-.15c-.125.1-.15.075-.2.075-.024 0-.05-.025-.1.025.026-.025.026-.05.026-.05.025-.05 0-.05-.025-.025.025-.075.05-.1.075-.05-.05-.2-.075-.474-.1-.798h.2c0-.075.173-.15.223-.2 0-.025-.075-.025-.15-.025.05 0 .1 0 .15-.025h-.124.05c-.025 0-.05-.025-.075-.025.025 0 .05-.025 0-.025h.1c-.05 0-.025-.05-.1-.05v-.025c0-.025.025-.025.025-.05.025 0 .025-.024.025-.024l.025-.025c.05-.075.074-.125.099-.15-.025.025-.05.1-.1.15l.05-.075c-.025.025 0 0-.05.075 0 0 0-.025.025-.025l.025-.025-.025.025c0-.025.025-.025.05-.05.05-.1.1-.15.1-.15l-.025.05s0 .025-.025.025c0 0-.025.025-.025.05l-.075.075c.05-.075.075-.1.1-.125l-.025.025.1-.125c-.025.025-.1.125-.2.25.075-.075.1-.15.075-.075a.36.36 0 0 0-.05.075l.05-.075c.025-.025.025-.025 0 0s-.025.05-.05.075l.05-.05-.05.05c.025-.025.075-.1.1-.1 0 0 .1-.125-.075.075 0 .025-.025.025-.025.05.025-.025.025-.025.025-.05.05-.05.075-.1.075-.075l-.124.125.05-.05-.05.05c.174-.2.174-.175.223-.225l-.1.1-.074.075.125-.125c-.05.025 0 0 .1-.1-.075.075-.175.15-.2.175l-.05.05c.05-.025.1-.075.175-.15-.05.05-.125.1-.175.15l.05-.05-.025.025-.025.025h-.024l.05-.05s-.026 0-.026.025c-.024 0-.024.025-.05.025.026 0 .026-.025.05-.05l.025-.025-.1.05h-.024c.025-.025.05-.025.05-.05-.025 0-.025.025-.05.025.025-.025.05-.025.05-.05 0 0 .025 0 .025-.025.024 0 .05-.025.05-.025h.024c0-.025-.025-.025-.075-.05h-.024c.025-.025-.224-.05.05-.05-.025 0-.05-.025-.075-.025h-.025c.025-.025.025-.025.025-.05h.074c-.024 0-.024 0-.05-.025 0 0 .026-.025.05-.025h-.124c.025-.025 0 0-.025 0h.025-.05c.025 0 0 0 0 0 .05 0 .1-.025.1-.025h-.075.05c.174-.025.124-.025.15-.05h-.15v-.024c.05-.025.025-.025 0-.05.025 0 .025 0 0 0 0 0 .025 0-.025-.025 0 0-.025 0-.025-.025h.075-.075l.025-.025h.124c-.074 0-.074-.025-.124-.025h.15c.024-.025.049-.05.024-.075h.1s-.15-.025-.274-.025c-.025 0-.025-.025 0-.025h-.025.075v-.025h.1c0-.025.173-.025.248-.05.025 0-.249-.025-.298-.025h.223c-.124-.025-.074-.025-.1-.05h.175-.199.124-.074.025c.074 0-.15-.025-.025 0h.05-.125c.05 0 0 0 0-.025h.025-.05.05c.025 0 .025 0 0 0 .05 0 0 0-.05-.025h.15c.024 0-.05 0-.1-.024h.075c-.05 0-.1 0-.125-.025h.125-.075s.025 0 .075-.025h-.25.15c.15 0 .1 0 .1-.025h-.125c.025 0 .025 0 0 0h-.025c-.024 0-.05 0 .1-.025h-.124.149c.025 0 .05 0 .025-.025H99.6h.2-.075c.05 0 .125-.025-.025-.025h.1s.15-.025-.15 0h-.074.15-.175.051c.025 0 .025 0 .05-.025h.274-.2.075-.224.025-.05.2c-.075 0-.05-.025-.225-.025h.1-.025.075-.05c-.025-.025-.05-.025-.1-.05h.025-.025.05-.125.175-.075.05-.125.075-.025c.05 0 .125-.025-.025-.025h-.05c.075 0 .175 0 .05-.025h-.05.025-.025.1-.1.225-.125.025-.025c.025-.025-.025-.025-.1-.05v-.2h.075c-.124 0 .075-.024-.075-.024.025 0 0 0 .125-.025h-.124v-.05c.024 0 .024-.025 0-.025v-.05h.024s.1-.025.075-.025h-.05c.05 0-.025.025-.05.025v-.05h.025-.025v-.075c.05 0 .1 0 .1-.025-.025 0-.075-.025-.124-.025 0-1.072-.025-2.22-.075-3.168.025.124.05.349.05.549 0-.225 0-.4.025-.574.1 0 .199 0 .273-.025h-.149.199-.224.224c-.1 0-.199.025-.274 0 .1 0 .2 0 .1-.025h.124c-.074 0-.024-.025-.149-.025.124 0-.025-.025.174-.025h-.174c.274 0 .025-.025.299-.025-.224 0-.1-.025-.25-.025h.05c.026 0 .1-.025.125-.025h-.348c.199-.025.224 0 .398 0h-.299c.125 0 .05 0 .224-.025h-.199c.124-.025.224 0 .15-.025h-.126c-.05-.025.124 0 .224-.025-.05 0-.224 0-.2-.025h.076c-.15 0 0-.025-.2-.025h.05-.124.099-.074.074-.099c.074 0 .025.025.149 0l-.075.025c.274-.025-.025 0 .274 0 .05-.025-.075-.025-.05-.025h-.224c-.174-.025.423-.025.2-.05h-.225.025-.025.225c.024-.025-.274 0-.15-.025h.075c.15-.024-.1 0-.1-.024h.175c-.025-.025-.15-.025-.175-.05h.15c-.075-.025.025-.05.124-.075h-.198.125c-.124 0-.273-.05-.124-.05h-.075.05c.05-.025.05-.05.025-.075l-.025-.025h.025-.025c.025 0 .05 0 .075-.025h-.05c.025 0 .1-.025.1-.025h.05-.026l-.124.025h.075-.1.075c-.025 0-.025 0 0 0h-.101c.1 0 .15-.025.224-.025h-.124.05-.15l.174-.025h-.174c.025 0 .025 0 0 0 .025 0 .125-.025.174-.025l-.124-.025h.124c-.149 0 .15 0 .025-.025h-.124c.1 0 .1-.025.05-.025h.1c.024-.024-.05-.05-.05-.074-.05 0-.2.025-.25 0h.15-.15.2-.05.124c-.1 0 .15-.025-.025-.025h.05c0-.025-.05-.025-.075-.05h-.224c.05-.025.15-.025.15-.05h-.15c.075 0 .075-.025.175-.025-.025-.025-.025-.025-.125-.05h-.025.05-.05c.025-.025.349-.075.15-.075h.025l-.125-.025h.15c-.225 0 .024-.05-.125-.075.174-.025.174-.05.15-.075-.025-.024-.025-.024-.025-.05v-.15l.074-.075.05-.05c.124-.125.075-.1.1-.1l-.05.05.05-.05-.2.2-.024.025.174-.175-.1.1c.025-.025.075-.05-.075.1v-.025l.075-.075c-.025.025-.05.05 0 0l-.075.075v-.025c.1-.075.15-.125.2-.15.024-.025.05-.05.024-.025l.1-.1s-.05.05-.124.1l-.075.075c-.025.025-.075.05-.1.075.025-.025.075-.05.1-.075l.075-.075h-.025l-.075.05-.1.1c0-.025-.024-.025-.024-.05.025-.025.074-.05.149-.1l-.124.1c.074-.05.199-.15.124-.075.05-.05.075-.075.1-.075-.075.025-.2.125-.1.05l.124-.075c-.05.025 0 0 .1-.074-.075.05-.174.1-.2.124-.074.05-.049.025-.124.075l-.05.025c.05-.025.1-.05.175-.1-.05.025-.125.05-.174.1l.025-.025s-.025 0-.025.025c0 0 .025 0 .025-.025h-.05c.025-.025.05-.025.05-.025-.025 0-.025 0-.05.025h-.025.05l.149-.075c-.075.025-.05.025-.2.075.076-.025.1-.05.1-.05-.024 0-.024.025-.05.025-.024.025-.05.025-.074.025h.025-.025.075c.074-.025.025-.025-.025 0h.025c.025 0 .025-.025.05-.025-.025 0-.075.025-.1.025.05-.025.1-.025.124-.05 0 0-.025 0-.074.025h-.05.025-.025c.025 0 .05-.025.1-.025h-.05c-.025 0 .199-.05.1-.025h-.026c-.174.025.174-.025-.124 0h.05-.05c.05 0 .1-.025.075 0h.05-.1.05c-.05 0-.05 0-.05-.025h-.075.1-.025.174c-.075 0-.15 0-.249-.025-.025-.025.274.025.224 0l-.124-.025h-.15c.025 0 .025-.024.05-.024h.1c.025 0 .025 0 0 0h.075-.05.073-.025.025c.05 0 .174.025.075 0l-.075-.025.15.05c.099.024-.125-.05-.025-.025-.025 0-.05-.025-.1-.025h.05l.1.05c.024 0-.026-.025-.1-.05.075.025.224.075.124.05 0 0-.025 0-.05-.025-.024 0-.024 0 0 0 0 0-.024-.025-.074-.025.025.025.075.025.1.05-.05-.025-.05-.025-.075-.025l.1.05h.024l-.05-.025s-.074-.05-.1-.05h-.022.075-.1.1-.075s-.025 0-.025-.025h.05-.025s-.025 0-.025-.025h.025c.025 0 .025.025 0 0h.075-.1c.075 0-.025-.025.2-.025-.225 0-.1-.025-.25-.025h.05c.025 0 .1 0 .124-.025h-.248.297-.273c.099 0 .05 0 .199-.025h-.2c.125-.025.224 0 .15-.025H99.7c-.05 0 .125 0 .224-.025-.05 0-.224 0-.199-.025h.075c-.15 0 0-.025-.2-.025h.05-.05.053c.248-.025-.025 0 .248 0 .05-.025-.074-.025-.05-.025h-.223v-.025c.1 0 .348-.025.199-.025h-.2.175c.025-.025-.274 0-.15-.025h.075c.15-.025-.074 0-.1 0h.15c-.025 0-.075-.025-.124-.025-.025 0-.05 0-.05-.025h.15c-.075-.025.024-.05.124-.074h-.201.125c-.05 0-.075 0-.1-.025h-.049c-.025 0-.025-.025.05-.025h.05-.1c.025 0 .025 0 .025-.025.024 0 .024-.025.05-.025h.074c-.124 0 .075-.025.1-.025h.05-.15.075-.1l.025-.025h.05c-.025 0-.025 0 0 0h-.05c.025 0 .05 0 .1-.025h-.224.149-.15.175-.199.124c-.1 0 .05 0 .05-.025h.025l-.1-.025h.1c-.15 0 .149 0 .025-.025h-.125c.1 0 .1-.025.05-.025h.1c.024-.025-.05-.025-.05-.05h-.224.149-.15.2-.05.124c-.1 0 .175-.025-.024-.025h.05c0-.025-.05-.025-.075-.05h-.174c.05 0 .124-.025.099-.025h-.15.151c-.025-.025-.025-.025-.124-.025 0 0 0-.025-.025-.025.074-.024.323-.05.124-.05h.025l-.15-.024h.175c-.224-.025.025-.025-.124-.05.248-.025.149-.025.124-.05h.1s.024 0 .024-.025h-.15.075-.174.149c-.2-.025 0-.075-.174-.1h.074c.125 0 0-.025-.1-.025h.15c.075 0-.15-.025-.025-.025h.05c-.05 0 .025-.025-.124-.025.074-.025-.05-.025.024-.05h-.05c.1 0 .075-.025 0-.025h.15s-.05-.025-.124-.025h-.002c.025 0 .025 0 .05-.024l-.074.024h-.05c-.025 0-.025 0 0 0s.05 0 .1-.024h-.025c-.025 0-.05 0 .099-.026h-.05c-.025 0-.05 0-.05-.024 0 0 0-.025.05-.025h.075-.025c-.05 0-.1-.025-.15-.025.2 0 .15-.025.15-.025H99.7c-.1-.025.025-.05-.1-.075h-.022s.05 0 .124-.025c-.05 0-.05 0-.074-.025h-.05.125c.024-.025.05-.025.024-.05h.1s-.398-.025-.423-.025h.199c0-.025.174-.05 0-.075h.1s.149-.05-.15-.025c.2 0 .025-.025-.075-.025h.15-.275.05c.025 0 .025 0 0 0 .074 0-.125 0-.05-.025h.1s-.025 0-.1-.025l-.025-.024h.1-.075.1c.024.05.05.074.074-.025 0 0-.025 0-.025-.025h.274c-.1 0-.299-.025-.249-.05h.1c.1 0 .05-.025.074-.025h-.199v-.025h.15c-.05-.025-.05-.025-.15-.05v-.075c.05 0 .05 0 .075-.025h.025-.025c.075 0 .05 0 0 0h.075-.075c.025 0 .075 0 .075.025-.025 0-.05 0-.075-.025h.05-.05.075-.075c.075 0-.025 0 .199.025-.224-.025-.124-.025-.2-.025h.026c.025 0 .1.025.124.025-.1-.025-.15-.025-.199-.025h-.025c.075.025.15.025.25.05-.15-.025-.15-.025-.25-.05.075 0 .05 0 .2.025-.1-.025-.125-.025-.125-.025h-.05c.125.025.224.025.15.025-.05 0-.1-.025-.125-.025-.05 0 .124.025.224.025-.05 0-.2-.025-.2-.025h.076c-.125-.025-.05 0-.125-.025.15.025-.05 0 .224.025.05 0-.075-.025-.025 0-.074 0-.124-.025-.174-.025.1.025.274.05.15.025-.05 0-.1-.025-.15-.025l.124.025s-.074 0-.124-.025h.075c.1.025 0 0-.075 0l.124.025c-.024 0-.074-.025-.124-.025.025 0 .075 0 .1.025-.075-.025.025 0 .124.025l-.15-.025s.075 0 .1.025c.05 0-.1-.025-.15-.025 0 0 .076.025.125.025-.05 0-.124-.025-.149-.025h.1c.025 0-.025 0-.075-.025.025 0 .05 0 .1.025-.15-.025-.025 0-.1-.025.075 0 .124.025.199.025 0 0-.15-.025-.2-.025l.125.025-.124-.025.15.025h-.05s-.075 0-.1-.025c.025 0 .124.025.199.025l-.124-.025c.05 0 .074.025.124.025-.15-.025.15.025.025 0-.025 0-.1-.025-.124-.025.099.025.099.025.05 0l.099.025h-.05c-.025 0-.124-.025-.2-.025l.1.025c-.074 0-.074 0-.1-.025.05 0 .125.025.15.025h-.05c.05 0 .075 0 .125.025-.1-.025.15.025 0 0h.05s-.05 0-.05-.025c-.124-.025-.124-.025-.2-.025.05 0 .125.025.125.025-.025 0-.05 0-.074-.025.025 0 .05 0 .074.025h-.05c.025 0 0 0 0 0h-.074.075-.075.274-.15.075c-.05 0-.124 0-.174-.025.05 0 .149.025.149.025-.025 0-.025 0 0 0h.05c.15 0-.174-.025-.174-.025.1 0 .124 0 .149.025 0 0-.1 0-.174-.025h.149c-.1 0-.1 0-.15-.025h.05-.05.05-.05v-.05h.05c-.124 0 .05-.025-.05-.025h.1c.075 0 .15-.025.025 0h.025-.15.175c-.224 0 .025-.025-.124-.025.373-.025-.025-.05.199-.1-.025 0-.05.026-.075.026-.1 0 .05-.05.05-.1-.075.025-.075.075-.125.05l-.025-.025s0-.025-.024-.025h.099c0-.025.174-.025.249-.05h-.299.075-.075.224c-.05 0-.074 0-.1-.025h.175-.175c.05 0 .075 0 0 0h.1-.099.099-.124c.025 0 .025 0 0 0 0 0-.025 0 0 0h.025-.05.05c.025 0 .025 0 0 0h-.05.174c.025 0-.025 0-.075-.025-.05 0-.1 0-.124-.025h.174-.1c.026 0 0-.025.1-.025h-.124c.174 0 .124 0 .124-.025h-.174.025c.05 0 .025 0 0-.025h.025-.05.025-.025.124-.124.15c.024 0 .05-.025.024-.025h-.274.15s.174-.025 0-.025h.1s.149-.025-.15 0c.2 0 .025 0-.075-.025h.15-.224.099-.074.124c-.025 0-.075 0-.1-.025h.075-.075.374-.25.152-.225.05-.075.025-.025.224c-.074 0-.05-.025-.224-.025h.074-.1.076c.15 0 .025-.024-.075-.024h.05-.05v-.05h.05-.05.051-.05.024c.025 0 .05 0 .1-.025h-.025.249-.15.2-.224.224-.274.224-.15.175-.174.298-.224.174-.348.398-.298.224-.2.249-.199.075-.2.05-.223.05-.05.174-.15.2-.075.248-.249.199-.174.274-.2.125-.224.199-.025.05-.05.075c-.025 0-.025 0 0 0h-.075.05-.05.025-.025.05-.05.075-.05.075-.05c.025 0 .025 0 0 0h.075c-.1 0 .174 0 0 0 .049 0 .099-.025.124-.025.025 0-.199-.025-.274-.05h.025l.174.025c-.149-.025-.074-.05-.074-.075h.149-.199.124-.025c.075 0-.149-.025-.024-.025h.049c-.049 0 .025-.025-.124-.025.075 0-.05-.025.025-.025H100h.025-.05.199s-.05-.025-.149-.025c.124 0 .099 0 .05-.025h.099c.025 0-.05-.025-.124-.025-.025 0-.05-.025-.075-.025h.05c.025 0 0 0 .149.025-.025 0-.074-.025-.124-.025.05 0 0-.025.099-.05h-.099v-.025c.149 0 .099 0 .099-.025H100c.05 0 .05 0 .05-.025h.025-.05.05-.1.05-.05.125-.1.075-.025.074c.025 0 .05-.024.025-.024h.075-.124c.024 0 .024 0 0 0h.024s.1 0-.024-.025v-.025h-.075.099H100h.124-.199.15c-.075 0-.025-.025-.15-.025.125 0-.025-.025.175-.025-.05 0-.175 0-.175-.025h.15c.025 0 .074 0 .149.025-.025 0-.075-.025-.124-.025h.124c-.199 0-.149-.025-.199-.025h.099-.024.074-.124c-.05 0-.075 0-.15-.025h.324-.174.124H100h.224c-.05 0-.224-.025-.199-.025h.075c-.1 0-.075-.025-.1-.025h-.025.1-.15.249c.05-.025-.074-.025-.025-.025h-.224c-.174-.025.423-.025.199-.025h-.248.224c.024-.025-.274 0-.15-.025h.075c.149 0-.1 0-.1-.025h.175c-.025 0-.075-.025-.125-.025h-.025.05-.05.15c-.075-.025.024-.05.124-.05h-.149.074c-.025 0-.074 0-.099-.025h-.075.075-.05.1c.024 0-.1 0-.175-.025h.05-.025.075H100h.124H100c.075 0 0-.025.05-.025h-.025c.025 0 .05 0 .099-.025-.099 0-.074 0-.074-.024h.099c-.124 0 .075-.025.1-.025h.05-.15.075-.075.025-.074.099H100c.025 0 .124-.025.199-.025l-.124-.025h.149-.1.125c.025-.025-.05-.025-.05-.05h-.249.15-.075.025-.05.124-.049.124c-.099 0 .174-.025 0-.025h.05c0-.025-.05-.025-.075-.05h-.224c.05 0 .15-.025.15-.025h-.2c.125 0 .125-.025.2 0-.025-.025-.025-.025-.125-.05H100c-.2-.025.373-.05.1-.075h.024l-.149-.025h.174c-.224-.025.025-.025-.099-.05.373 0-.025-.05.224-.05h-.15c-.024 0-.024 0-.024-.024h-.025a.305.305 0 0 0 .124-.125h-.025l-.149.15h-.075c.05-.025.1-.075.224-.2l-.124.1c.074-.05.249-.2.05-.05a.423.423 0 0 1 .124-.1c-.025 0 0 0-.149.125.074-.075.273-.225.249-.225l-.025.025c-.025 0-.025.025-.05.05-.075.05-.125.075-.199.15v-.025l-.05.05.025-.025s-.025.025-.05.025c-.124.1.125-.075.025 0-.025 0-.05.025-.1.075-.024.024.075-.05.15-.1-.05.05-.1.075-.125.1h-.1c.05-.025.125-.075.175-.1-.075.05-.025.025.05-.025H100c.075-.05.1-.05.124-.075.025-.025.075-.05.075-.05s-.05.025-.075.05c-.074.05.05-.025.05-.05l-.074.05c-.1.05-.2.125-.324.224l-.547-1.447zm.15-.673l-.05-.025c.05.025-.025 0-.05 0v-.05c.05.05.05.05.1.075zm.199-7.984h.124c-.024.025-.05.075-.1.1-.049-.025.026-.075-.024-.1-.025 0-.025 0 0 0zm-.2-25.923l.026-.275h.025c.025 0 0 0 0 0v.449l-.075.05c.025-.05.025-.125.025-.224zM.325 17.166c0-.025-.05-.05-.05-.075l-.025-.025c.05-.05.15-.075.249-.025h.05l.1.1h-.2c0 .025-.05.025-.124.025zm0 52.046h.05v.15c0-.026-.026-.076-.05-.15zm.1 12.1c-.026 0 0-.025 0-.025v-.399h.024l.025.15c0 .075 0 .175.025.25l-.075.024zm.173-.1l-.074.05v-.05s-.025-.1-.05-.224c0-.05-.025-.1-.025-.125h.05v.025l.05.325c0-.125.024-.1.05 0zm.15-54.39s-.025.024-.175.15H.498c-.025 0-.05 0-.075-.026-.05-.05-.1-.1-.174-.2.05 0 .075 0 .124.026.05 0 .125.024.175.024.074.025.124.025.199.025-.05.05 0 0 0 0zM7.914 99.6h-.05v.025-.025l-.696-.025v-.025c.323-.025.448-.05.497-.075h.2v.125-.125h.05v.125zm0-.175h-.05v-.075.075H7.69c.025-.025 0-.05.15-.075h.074v-.075h.025l-.025.15zm.672.025H7.94v-.15h.2c.124 0 .273 0 .422.025v.075h.025v.05zM23.868.798l-.025-.124-.025-.15-.025-.125h.075c.074.05.074.05.1.1l.049.025s.025.025.025.05l-.025.025c0 .025-.05.05-.15.2zm25.286 98.478c-.05-.025-.1-.074-.05-.124h1.22c-.075.05-.399.1-1.17.124zm6.346.075c.05 0 .1-.025.15-.025l.199.075a1.15 1.15 0 0 0-.349-.05zm2.44-.075c.024 0 .024-.025.05-.025.024-.025.049-.05.099-.05s.149-.024.248-.024h.025l-.423.1zm4.778-.025c-.075 0-.15-.025-.224-.025l-.373.1v-.075l.149-.025h-.15l.175-.05.273-.024h.05-.025c.025 0 .05.025.075.025.1.025.174.025.274.05-.05.05-.15.024-.224.024zm18.442-.025h-.025c-.075 0-.15.025-.274.025-.05 0-.124 0-.199.025h-.124l-.15-.1h.822c-.025 0 0 0 .024.026-.024.025-.05.025-.074.025zm9.109.025v.025l-.473.05c-.249-.025-.423-.1-.349-.15h.797l-.025.05.05.025.025-.074h.025l-.025.074h-.025zm.05-.025l.025-.074h.174l.124.05-.323.025zm.348-.05h.473l-.423.026-.05-.025zm.224.15l-.025-.025.423-.124.274.124a6.062 6.062 0 0 1-.672.025zm1.12-.025v.025c.124 0 .324.025.547.025-.149.025-.323.075-.572.1v.05-.2h.025l-.025.025v.175h-.05l-.298-.15c.1 0 .224-.025.373-.025v-.149l-.025.15h-.423l-.274-.125.1-.025h.597v-.025c.572.025 1.12.025 1.668.05h.1v.049c-.548.025-1.146.05-1.743.05zm2.165-.075h-.324v-.05h.324v.05zm.647.125c.224.05-.124.1-.547.125v-.1c.174-.025.373-.025.547-.025zm4.455-7.21a.19.19 0 0 1 .1.05c-.1 0-.174-.025-.274-.05h-.05a.345.345 0 0 1 .224 0z"/></symbol><symbol id="htzlogo" viewBox="0 0 71 48"><path fill="url(#a)" d="M4 0h62.56v40H4z" filter="url(#b)"/><defs><filter id="b" width="70.56" height="48" x="0" y="0" color-interpolation-filters="sRGB" filterUnits="userSpaceOnUse"><feFlood flood-opacity="0" result="BackgroundImageFix"/><feColorMatrix in="SourceAlpha" values="0 0 0 0 0 0 0 0 0 0 0 0 0 0 0 0 0 0 127 0"/><feOffset dy="4"/><feGaussianBlur stdDeviation="2"/><feColorMatrix values="0 0 0 0 0 0 0 0 0 0 0 0 0 0 0 0 0 0 0.25 0"/><feBlend in2="BackgroundImageFix" result="effect1_dropShadow"/><feBlend in="SourceGraphic" in2="effect1_dropShadow" result="shape"/></filter><pattern id="a" width="1" height="1" patternContentUnits="objectBoundingBox"><use transform="matrix(.00184 0 0 .00287 -.002 0)" xlink:href="#c"/></pattern></defs></symbol><symbol id="tw-logo" viewBox="0 0 12 9"><path fill="#fff" d="M9.91 2.233c.004.097.006.196.006.293 0 2.994-2.278 6.445-6.444 6.445-1.28 0-2.47-.375-3.472-1.018a4.546 4.546 0 0 0 3.353-.937 2.267 2.267 0 0 1-2.116-1.573 2.315 2.315 0 0 0 1.023-.039A2.267 2.267 0 0 1 .443 3.182v-.028c.306.17.656.272 1.026.284A2.265 2.265 0 0 1 .77.413 6.43 6.43 0 0 0 5.437 2.78 2.264 2.264 0 0 1 7.643 0c.652 0 1.24.274 1.654.715.515-.102 1-.29 1.438-.55a2.268 2.268 0 0 1-.996 1.253 4.53 4.53 0 0 0 1.301-.357 4.574 4.574 0 0 1-1.13 1.172z"/></symbol><symbol id="prijava-gumb" viewBox="0 0 23 24"><path fill="#00386C" stroke="#00386C" d="M11.303 1c-2.149 0-4.218.678-5.975 1.96a10.716 10.716 0 0 0-3.756 5.015c-.11.292.03.626.32.74a.543.543 0 0 0 .714-.333A9.628 9.628 0 0 1 5.971 3.9a8.99 8.99 0 0 1 5.342-1.752c5.133 0 9.31 4.337 9.31 9.665 0 5.329-4.177 9.666-9.31 9.666a8.99 8.99 0 0 1-5.342-1.752 9.577 9.577 0 0 1-3.365-4.483c-.11-.292-.432-.449-.713-.334a.585.585 0 0 0-.321.74c.743 2.023 2.038 3.764 3.756 5.016a10.086 10.086 0 0 0 5.975 1.96c5.745 0 10.415-4.849 10.415-10.813S17.048 1 11.303 1z"/><path fill="#00386C" stroke="#00386C" d="M13.525 12.053l-2.296 2.382a.604.604 0 0 0 0 .814.536.536 0 0 0 .782 0l3.62-3.77-3.62-3.772a.547.547 0 0 0-.782 0 .604.604 0 0 0 0 .815l2.296 2.392H1.552a.57.57 0 0 0-.552.575c0 .313.25.574.552.574h11.973v-.01z"/></symbol><symbol id="yt-logo" viewBox="0 0 12 10"><path fill="#fff" d="M6 0C.103 0 0 .524 0 4.62s.103 4.62 6 4.62 6-.524 6-4.62S11.897 0 6 0zm1.923 4.82L5.229 6.078c-.236.11-.429-.013-.429-.274V3.436c0-.26.193-.383.429-.274L7.923 4.42c.236.11.236.29 0 .4z"/></symbol><symbol id="fb-logo" viewBox="0 0 11 11"><path fill="#fff" d="M9.6 0H1.2C.54 0 0 .54 0 1.2v8.4c0 .66.54 1.2 1.2 1.2h4.2V6.6H4.2V5.115h1.2v-1.23c0-1.298.727-2.21 2.26-2.21h1.08V3.24h-.718c-.596 0-.823.447-.823.863v1.014h1.54L8.4 6.6H7.2v4.2h2.4c.66 0 1.2-.54 1.2-1.2V1.2c0-.66-.54-1.2-1.2-1.2z"/></symbol><symbol id="group-1" viewBox="0 0 67 20"><path fill="#fff" d="M8.764 1.617c.1.175.174.374.298.524.125.15.274.3.373.449.224.4.498.998.672 1.497.573 1.597.946 3.293.996 5.489.025 1.397-.124 2.994-.373 4.192a10.088 10.088 0 0 1-1.145 3.143c-.1.2-.349.4-.498.574-.373.424-.572.624-.92 1.023-.922.175-.374.424-1.594.424-.572-.05-1.792-.224-1.443-.399-.2-.2-.448-.324-.622-.499-.1.075.124.175.074.225-.05.05-.149-.05-.199-.025-.074.05.299.2.274.324-.2-.025-.548-.35-.697-.45-.199-.149 0 .076-.05.076-.05.075-.423-.35-.473-.275.05.225.573.425.747.574-.174 0-.373-.075-.523-.15a6.774 6.774 0 0 1-1.916-2.045c-.448-.6.075-.05.05-.225C1.098 14.591.75 12.72.799 10.399a20.7 20.7 0 0 1 .224-2.47c.15-1.297.573-2.47 1.046-3.568.174-.424.522-.798.796-1.222.274-.4.523-.824.92-1.048.026-.075.026-.175.05-.275.573-.299 1.146.15 1.693.325.448.174.92.274 1.244.499.15.399.598.374.872.624.05.174.174.274.074.449.075.224.274.3.374.499-.15.324-.473.499-.797.773-.547.5-.97 1.248-1.443 1.996-.797 1.447-1.145 3.094-.996 5.764.075 1.122.324 1.87.797 2.62.323.523.696.873 1.17.898.621.024.77-.375 1.07-.574.87-1.173 1.244-2.42 1.418-3.518.373-2.37.373-4.64-.274-6.762-.273-.923-.647-2.22-1.12-2.894l-.448-.649c-.149-.2-.448-.499-.448-.648-.025-.3.324-.325.548-.325C7.644.818 7.444.72 7.494.67c.448-.2 1.046.599 1.27.948zM4.01 17.834c-.224-.05-.15.05-.025.125.124.075.423.025.224-.075-.2-.174-.423-.399-.672-.549-.15.05.324.35.473.5zm8.512-16.217c2.14-.3 3.807-.324 5.749.324.398.125.846.4 1.244.599.797.45 1.32 1.098 1.742 1.921.374.699.573 1.647.697 2.62.15 1.148.125 2.545-.075 3.792-.298 1.772-.87 2.87-1.592 4.067-.573.424-.996 1.098-1.568 1.597-.224.2-.523.4-.797.624-.622.549-1.344.873-2.215 1.297-.423.2-.896.45-1.518.4.025-.3-.323-.225-.448-.375-.124 0 .075.125-.025.2-.423.075-.746-.075-1.045-.2-.15-.374-.423-.698-.473-1.272-.124-1.472 0-3.319-.05-4.99a47.474 47.474 0 0 1 .075-4.641c.2-2.77.498-3.792.498-4.416-.2-.125-.473-.3-.473-.4 0-.05.1-.05.124-.074-.05-.1-.323-.125-.273-.2.1 0 .124.025.223 0-.323-.175-.646-.624-.298-.998.224 0 .299.1.498.125zm3.783 2.195c-.1 3.992-.05 8.234-.2 12.126.2-.1.523-.499.672-.798.3-.55.523-1.298.772-1.971.2-.649.498-1.373.622-2.096.373-1.771.373-4.117-.15-5.589-.298-.773-.845-1.622-1.642-1.746-.025.025-.1.025-.074.074zM27.28 2.24c.025.4.373.574.473.849.15.175.2.499.349.798.647 1.946 1.368 3.967 2.015 5.938a67.86 67.86 0 0 1 1.718-5.239c.124-.3.199-.574.348-.848.174-.425.423-.65.423-1.223-.15-.2-.199-.474-.174-.823.672-.474 2.613-.749 3.285-.05.299.025.548.125.647.3.175.299.1.798.399.947.298 1.946-.025 4.367.024 6.687.025.649.15 1.297.075 1.946-.075.923.025 2.944.025 4.142-.025.624-.224.948-.473 1.397-.174.324-.299.4-.572.649-.274.274-.423.424-.822.623-.074.075-.149.075-.273.1-.224.175-.423.3-.797.474-.423.175-.647.35-1.045.05-.423-2.345-.349-5.464-.349-7.784 0-1.273.075-2.395-.05-3.643-.173.898-.597 1.871-.746 2.295-.15.425-.846 2.246-.846 2.495.025.275.298.55.224.874.025.124-.1 0-.15.075-.024.1-.05.2-.05.299-.323.15-.472.45-.497.848-.124.1-.323.275-.398.4-.373.174-.822.299-1.095.548-.324.025-.747.125-1.17.175-.2-.125-.274-.4-.498-.499-.597-1.347-1.369-3.992-1.916-5.44 0 1.024-.05 2.52-.05 2.87-.025 1.896.1 4.341.125 4.067-.025.374.074 1.023-.1 1.297-.1.225-.548.3-.572.574-.2.05-1.12.4-1.593.474.149-2.819-.125-6.162.025-9.78.05-1.223.1-2.844.074-4.242 0-.374.1-1.147-.025-1.472-.149-.374-.149-.648-.497-1.122.273-.524.945-.6 1.493-.849 1.419-.124 2.39.2 3.036.824zm15.555-1.222c.174.05.299-.025.398.025.15.025.424.2.648.324.497.2.945.6 1.368.948.075.275.423.6.324 1.023-.2.1-.324.325-.498.45.299.399.523.673.697 1.072 1.22 2.446 1.12 4.516 1.095 5.963-.025 1.772-.323 4.292-.871 5.44 0 .1-.05.15-.025.299-.174.1-.199.374-.298.599-.175.075-.224.324-.374.424-.1.125-.274.15-.298.35-.3.1-.598.349-.847.548-1.244.524-3.036.45-4.18-.748-1.096-1.148-1.619-2.42-1.992-4.616-.274-1.597-.199-3.468.05-5.115.124-.898.373-1.871.622-2.67.423-1.247 1.02-2.445 1.842-3.368.398-.35.896-.773 1.418-.973.299.05.423-.15.697-.1.125.075.175.15.224.125zm.597 4.316c-.771 1.073-1.02 1.822-1.343 2.97-1.096 4.016.05 8.058 1.12 7.734.771-.2 1.07-.848 1.418-1.747.324-.848.697-3.068.597-6.237-.05-1.697-.696-3.194-1.07-3.543-.199.25-.547.524-.722.823zm13.714-2.046c.697.998 1.145 3.469.124 5.315-1.095 1.97-3.385 3.218-3.982 3.418 1.518.4 2.041 3.393 2.987 4.441.498.549 1.145.923 1.817.848.05.225-.274.524-.424.774-.024.1.025.224-.024.3-.15.224-.374.498-.598.523-3.36.4-4.58-4.316-5.127-5.114-.074.474.224 4.216.025 4.466-.299.05-.547.124-.896.124-.1 0 0 .175-.1.2-.323.15-.547.025-.82-.025-.075-.05-.2.05-.3.075-.099.025-.174-.05-.323-.05-.547.05-1.07.374-1.518.1l.05-.325c0-1.122.05-4.416.05-4.915.05-1.222-.05-2.47-.025-3.593.025-.948.025-2.12.025-3.218.024-.599-.175 1.147-.224.274.05-.873-.025-2.345 0-3.293 0-.175 0-.3-.05-.524-.324-.2-.548-.324-.398-.4.448-.124-.448-.423.05-.423.273 0-.374-.65-.15-.6.548.1.548-.1 1.593-.174 4.928-.35 6.894-.1 8.238 1.796zm-5.152 5.964c-.025.324-.025.898-.075 1.147.324-.174 1.295-.823 2.09-2.22.35-.6.748-1.747.598-2.695-.274-1.771-1.443-2.096-2.464-2.096-.025 1.522-.025 4.242-.149 5.864z"/><path fill="#fff" d="M63.442 1.567c.15.1.3.2.399.3.572.498.647 1.471.846 2.47.299 1.372.224 2.869.473 4.34l.846 5.09c.174.949.373 2.121.498 3.02.1.374.323.898.199 1.272-.05.175-.274.3-.374.45-.224-.05-.547-.076-.622.099-.15.05-.273-.025-.448.025-.1 0-.025.2-.124.2-.398.074-.598-.3-1.046-.3-.124.05-.174.15-.373.125-.473-.55-.522-1.622-.821-2.77-.697.025-1.842.025-2.539 0-.1.749-.348 1.348-.597 1.897-.2.399-.324.523-.747.773-.547.324-.945.224-1.319-.15-.124-.15 0-.274.1-.374.373-.3.398-1.447.572-2.196-.149-.124-.174-.1-.398-.15 0-.074.1-.05.125-.074-.025-.075-.324-.075-.324-.15 0-.05.174-.05.2-.075-.225-.124-.374-.15-.374-.324.124-.025.15-.05.199-.05.025-.125-.174-.175-.05-.449.423.15.349-.15.871-.125.747-3.493 1.27-7.235 2.116-10.728.05-.275.298-.774.273-.948-.025-.15-.224-.225-.273-.375-.1-.424.473-.898.846-1.023.124-.025.298.025.473 0 .273 0 .697-.174.97-.074.175.05.299.224.423.274zm-2.737 12.7c.572-.025 1.493-.025 1.916-.1-.224-1.622-.697-3.867-.946-5.49-.298 1.797-.771 3.818-.97 5.59z"/></symbol><symbol id="group" viewBox="0 0 67 18"><path fill="#fff" d="M9.162 1.321c.1-.05.124-.224.249-.25.248.076-.349.9.05.824.174 0-.026.774-.175 1.248-.075.399.249-.4.249-.075 0 .374-.498 2.645-.523 3.144a8.828 8.828 0 0 1-.323 1.347c-.2.923-.299 1.846-.498 2.77-.1.473-.224.898-.299 1.397-.149.923-.298 1.896-.423 2.819-.124.748-.074 1.722-.622 2.096-.249.15-.473.1-.697.174-.124.025-.224.125-.323.15-.423.1-1.17-.05-1.469-.3-.92-.698-1.194-2.594-1.543-3.991-.025-.574-.298-1.098-.398-1.672C2.168 9.755.7 2.77.7 2.32c0-.399.124-.798.448-1.047.273-.05.473-.3.796-.325.324-.05.722 0 1.12.075.2 0 .373-.05.498 0 .1 0 .15.075.249.05.473.125.945.25 1.095.699-.1.898.597 6.262.946 7.66.1.473.323 1.796.472 2.145.25-.948.971-4.815 1.17-6.063.05-.35.075-.724.15-1.098.248-1.497.373-1.821.447-2.145.075-.325.05-.749.15-.974.074-.2.298-.249.423-.424.224.025.373.125.498.45zm9.88 3.119c0 3.294-1.941 5.714-3.783 6.936 1.593.724 1.867 3.643 2.862 3.743.473.05.772-.3 1.046-.374.348 0-.05.524-.125.748-.075.175-.075.4-.15.574-.124.224-.397.4-.447.674-.822.424-1.917.374-2.564-.225-.82-.723-1.344-3.119-1.966-3.493 0 1.322.125 2.97.125 3.069 0 .2.1.424-.15.499-.547.2-1.443.324-2.115.274-.598-.074-.921-.449-1.195-.873-.274-1.497-.249-4.291-.249-5.913-.024-.948-.074-1.871-.05-2.794 0-.6 0-1.223.025-1.797.05-1.422.025-2.12.025-2.77-.05 0-.074-1.272.15-1.446.373-.375 1.344-.5 1.966-.3.722-.174 1.618-.35 2.364-.274 3.385.3 4.231 2.245 4.231 3.742zm-5.177 4.167c-.024.499 0 1.023-.05 1.622.598-.5 1.544-1.946 1.942-3.518.523-2.146.373-4.092-1.344-4.092-.423 1.721-.398 3.792-.548 5.988zm8.089-7.236c.299.025.373.25.572.375.125.124.274.2.349.299.274.4.473 1.422.498 1.946.1.848-.025 1.697.025 2.545 0 1.148-.025 2.146-.125 3.219-.124 1.222-.274 2.245-.15 3.443.075 1.023.4 2.52.125 3.518-.074.1-.074.274-.224.324-.174-.025-.423-.224-.597-.35-.174 0-.349-.024-.473-.1-.323.05-.373.325-.771.275-.075 0 .024.175-.05.175-.174.125-.299-.025-.498 0-.299-.424-.274-1.647-.398-2.27-.448-3.02-.299-6.438-.174-9.257-.125-1.023.174-2.794-.224-4.017 0-.15.124.075.174-.025.05-.2-.224-.474-.075-.599.299.05.498.175.747.175 0-.15-.423-.374-.25-.374.598.025 1.22.25 1.52.698zm8.462-.399c.299.15.323.175.498.45.174.174.348.373.373.698.05.1.2.075.224.2.1 1.172.025 2.145.025 3.343 0 1.272.373 5.19-.15 7.859-.298 1.472-.771 2.62-1.94 3.193-.747.375-1.47.2-1.693.175-.324-.05-.349.1-.523.075-.448-.05-.771-.125-1.145-.35-1.045-.598-1.742-1.895-1.742-3.667 0-1.197.398-2.395.822-3.144.224-.399.547.275 1.393.474.224.075-.074.175.025.275.174.05.373.025.498.224.025.05-.025.2.05.325.05.124.199.224.199.274.075.2-.075.45-.025.649.05.125.15.25.174.35.025.099-.1.199-.124.324-.274.998.1 2.12.796 2.02.672-.1.498-1.322.448-2.32-.15-1.572-.348-3.144-.224-4.49.025-.1.025-.175.1-.25-.075-1.597.124-3.244.174-4.99-.622-.025-1.394.124-2.09.1-.2 0-.374-.1-.548-.125-.125 0-.498.05-.622.025-.324 0-.324-.35-.648-.45-.174-.05.15-.15.224-.15-.074-.149-.224-.099-.323-.274-.05-.1.174-.324.274-.374.199-.15.647-.2.896-.274.92-.325 2.215-.025 3.06-.275.175-.025.3-.15.474-.1.199-.124.771.05 1.07.2zm-3.111 15.769c.025-.15-.672-.2-.97-.375.422 0-.424-.35-.474-.3.274.425.896.675 1.444.675zm.896-.375c-.498 0-1.17-.075-1.543-.224.274.3 1.045.449 1.543.224zm6.745-15.269c1.343-.125 3.434-.55 4.405.175.05 0 .074-.05.15-.05.099.25.323.349.447.499-.05.074.05.224-.025.399-.025.075.1.025.075.1-.075.1-.15.2-.274.25-.025.124.1.049.075.174-.1.075-.299.075-.473.1-.05.15-.249.124-.299.224-.97.025-1.667-.05-2.563 0-.05 1.472.15 2.77.124 4.017.747-.1 1.493.1 2.165.2 0 .124-.174 0-.199.075.224.1.448.224.598.374 0 .05-.025.125-.025.2.15.124.398.15.423.399h-.224c-.05.25.15.274-.05.374-.05.1.124.125.05.174-.274.125-.548.1-.846.175-.1.05-.174.125-.274.15-.423.075-1.32-.1-1.693.025.175.549.075 1.247.025 1.92-.05 1.174.05 2.92-.074 3.818.896.025 1.269-.1 2.215-.075.945.025 1.369-.499 1.369-.124-.025.324-.05.499-.125.823a.3.3 0 0 1-.124.125c-.1.399-.448.549-.697.773-.1.05-.125 0-.15.125-.547.175-.895.175-1.368.25-.473.074-.946.2-1.444.299-.547.05-1.866.05-1.792-.05.05-.175.324-.15.423-.15-.323-.274-1.244-.124-1.17-.374.225-.15.3 0 .648-.075-.075-.175-.224-.05-.349-.15a.575.575 0 0 1-.174-.174c-.224-.275-.572-.524-.672-.848-.15-.375-.174-.849-.15-1.373v-1.92c.05-2.72.175-5.016.026-7.261-.05-1.198-.025-2.52-.25-3.518.125.075.1-.05.15-.125.573-.35 1.568-.25 2.116.05zm5.574-.075c3.136-.374 5.924-.499 7.69 1.273 1.668 1.671 1.345 4.091 1.27 5.339-.05 1.073-.547 3.917-1.792 5.713-.846 1.248-1.742 2.37-3.21 3.044-.822.425-2.09.624-2.166.6-.074-.076.1-.1.1-.175-.025-.05-.473.124-.498.074-.05-.05.174-.075.15-.15-.175-.1-.274-.074-.399-.249-.074.025-.05.2-.174.1-.075.075.15.274 0 .274-.174.025-.398.125-.498-.074-.074-.15.025-.325 0-.474-.025-.15-.149-.3-.174-.45-.124-.673-.1-1.472-.075-2.22.05-1.223.2-2.47.2-3.793 0-2.894-.025-5.015-.274-7.185-.1-.175-.349-.35-.349-.55-.05-.099 0-.124.025-.174-.199-.1-.249-.174-.249-.25 0-.124.175-.1.224-.174-.124-.274-.497-.3-.174-.674.125.125.274.025.373.175zm4.182 5.165c0 3.118.074 5.24-.15 7.76.15-.076.324-.225.423-.4.498-.773 1.046-2.245 1.245-3.468.547-3.393.423-6.612-1.593-6.911-.025.873.075 2.12.075 3.019zm9.756-5.165c.15.1.274.2.373.275.523.474.597 1.372.772 2.295.273 1.272.224 2.645.448 4.017l.771 4.69c.174.874.349 1.972.473 2.795.1.35.299.823.2 1.173-.05.174-.25.274-.35.424-.223-.05-.497-.075-.572.1-.149.05-.249-.025-.423.024-.1 0-.025.2-.124.2-.374.075-.548-.274-.97-.274-.125.05-.175.15-.35.124-.447-.499-.497-1.497-.746-2.544-.647.024-1.692.024-2.364 0-.1.673-.324 1.247-.548 1.746-.199.374-.299.499-.672.699-.498.299-.87.224-1.22-.15-.124-.15 0-.25.1-.35.349-.274.374-1.347.523-2.02-.15-.125-.174-.1-.373-.15 0-.075.1-.05.124-.075-.025-.075-.299-.075-.299-.15 0-.05.175-.05.2-.074-.224-.125-.349-.15-.349-.3.124-.025.15-.05.2-.05.024-.124-.175-.174-.05-.424.398.15.323-.15.796-.125.672-3.243 1.17-6.686 1.966-9.93.05-.25.274-.698.249-.873-.025-.15-.224-.225-.25-.35-.099-.399.449-.823.772-.947.125-.025.274.024.448 0 .25 0 .648-.175.896-.075.1.075.224.25.349.3zM51.894 12.75c.523-.025 1.394-.025 1.767-.1-.224-1.497-.647-3.568-.87-5.09-.274 1.697-.697 3.568-.897 5.19zM65.856 1.097c.498.823.374 1.946.349 3.194-.05.873-.025 1.82-.075 2.644-.05.923-.1 2.22-.1 3.119 0 1.297-.099 2.12-.099 3.443 0 .424-.174.873-.1 1.173.05.274.3.524.25.823-.15.225-.175.5-.324.699-.125.15-.348.174-.348.399-.15 0-.224.05-.224.15-.672.299-1.37.274-1.842-.15-.423-.374-.871-1.148-1.12-1.672-.896-1.821-1.668-4.69-2.29-6.636-.025.673.15 5.638.1 6.611-.025.15-.1.325-.125.5-.05.598 0 1.072-.448 1.322-.348.224-.721.15-1.12.25.349-2.496.1-5.19.1-7.835 0-1.622-.075-3.194.1-4.591.05-.25.149-.499.099-.724 0-.299-.398-1.92-.697-2.245-.124-.1.299-.1.274-.274-.1-.225.473.074.697-.275.249-.224.846-.175 1.344.1.348.2.572.649.721.923.2.374.399.898.498 1.248.697 1.896.996 2.744 1.618 4.565.473 1.348.846 2.396 1.394 3.593.025-1.846.074-3.044.074-5.065 0-1.97-.05-3.942.25-5.264.099-.275.572-.05.522-.225.15-.224.274.225.522.2z"/></symbol><symbol id="group-2" viewBox="0 0 68 22"><path fill="#fff" d="M10.361.594c-.025.1-.15.1-.125.274.025.1.125-.025.224 0 .025.2-.124.275-.024.4.124.1.1-.075.248.124.025.125-.024.2-.1.25 0 .1.125.025.15 0 .15.125-.224.449.025.449-.1.15-.1.324-.274.274-.348.724-1.543.799-2.538.849 0 .25-.025.623-.025.998 0 .973-.15 10.254-.15 11.078 0 .873.225 3.018.125 3.992-.025.1-.1.224-.124.349-.075.674-.125.574-.697.948-.2.125-.498.45-.846.45-.274 0-.399-.2-.598-.275-.199.1-.323.224-.373.374-.224-.1-.523 0-.722.125-.348-.25-.473-.724-.796-.973-.025-.125 0-.225.074-.275-.248-.948-.199-3.119-.149-4.466.075-1.098.025-2.27.1-3.443.074-1.796.025-3.668.074-5.39.025-1.072.1-2.619-.1-3.667-1.07-.1-2.065.025-2.787-.499-.025-.15-.025-.4.025-.474C.78 1.816.704 1.492.854.993c.074-.1.274 0 .249-.2.074.026.124.075.199.125C2.745.42 7.623.47 7.947.42c.771.025 1.717.075 2.414.175z"/><path fill="#fff" d="M19.52.669c.821-.15 1.12.524 1.468.973.573 1.422.125 2.944.075 4.466 0 .599-.025 1.198-.075 1.821-.075 1.298.274 3.269.224 5.24-.199 5.065-1.568 6.362-3.086 7.41-.722.499-1.991.699-2.539.723-2.862.2-5.201-2.045-5.5-5.014-.15-1.572.249-3.219.498-4.616.274.025.597.35.995.274.1-.075-.149-.2-.024-.274.696.15.721.449 1.095.873.721.2 1.045.848 1.468 1.347-.025.375.224.45.324.799.224.698-.125 1.098-.025 2.395.074.724.622 1.447 1.344.973 1.17-.798.373-6.213.273-7.086-.273-3.019.025-5.514.2-8.233-1.792-.1-3.908.274-5.5-.325.099-.075.323 0 .472-.025-.15-.2-.498-.2-.697-.349-.025-.025.2-.075.075-.125.025-.224.348-.15.473-.25 0-.099-.1-.074-.2-.074.026-.15.2-.225.449-.25.124-.074-.15-.074-.025-.15a.41.41 0 0 1 .348-.074c0-.2-.249-.1-.249-.25.523-.124 1.419-.2 2.041-.274 1.095-.125 2.29 0 3.31-.15.125 0 .224-.075.349-.1C17.977.22 18.873.32 19.52.67zM25.17.57c2.488.124 4.205-.225 6.122.074.124.025-.1.125-.2.15.15.324.747-.125.822.15.1.473-.448.748-.398 1.072 0 .45-2.788.5-4.132.624.324 1.771.274 4.167.125 5.863 1.194.025 2.34-.15 3.733-.075.075.2-.075.35-.025.524 0 .15.15.25.15.4.074.573-.474.848-.822 1.172-.15.075-.1-.124-.199-.025-.821.375-1.916.225-3.012.2-.124.998 0 2.645.1 3.792-.124 1.173 0 2.67-.075 3.918.523.124 1.095.124 1.693.2.87.099 1.642.199 2.613.149.572 0 .075.973-.025 1.522-.821.798-2.986.923-4.679.973-.87.025-2.14-.025-2.837-.325-.124-.074.15-.024-.025-.274-.323-.374-.398-.798-.523-.823-.149.2.448.873.374.998-.448-.1-.573-.524-.747-.874-.124-1.422-.075-3.143-.075-4.665 0-.724 0-1.697-.024-2.595 0-1.821-.025-9.282-.2-10.18-.074-.449-.149-.948-.522-1.122.124-.075.274-.125.398-.225-.15-.225-.398-.324-.398-.699.87-.15 2.09-.25 2.787.1zm15.978 1.471c1.742 1.747 2.638 4.167 2.787 7.16.1 1.872-.025 4.217-1.394 6.662-1.27 2.246-2.713 3.693-4.405 4.99-.448.1-.846.325-1.195.075-.273.275-.672.225-1.095.2-.074.35-.497.274-.721.075-.15.025-.125.15-.2.224-.671 0-.97-.374-1.294-.698-.348.075-.273-.35-.572-.25-.15-.474-.473-.698-.498-1.197-.1-.524-.025-1.173 0-1.697.1-2.794-.249-5.863-.15-8.807.026-1.472-.024-2.994.026-4.541.025-.574.074-1.223.074-1.822.025-.449.075-.873-.248-1.073 0-.1.074-.124.223-.1.025-.124-.124-.274.15-.274-.1-.125-.125-.374.025-.474 1.344.15 2.762-.224 4.131-.224 1.867-.05 3.41.873 4.355 1.771zm-3.784 11.352c.025 1.647.1 3.194 0 4.766 1.519-1.447 2.863-4.217 2.863-7.335 0-4.292-1.668-6.862-2.589-7.386.025 1.647-.323 5.988-.273 9.955zM51.127 1.068c.25.5.473 1.073.722 1.647.2.574.399 1.098.523 1.696.199.724.224 1.448.348 2.27.224 1.822.473 3.619.747 5.615.075.399.224.848.324 1.297.124.748.199 1.572.398 2.37.273 1.447.97 3.12.87 4.516-.198.125-.372.225-.397.45-.473.024-.797.324-.847.523-.398-.025-.671-.324-.995-.399-.1.025.075.15-.025.225a5.106 5.106 0 0 0-.846-.4c-.1.1-.075.2-.249.2-.15-.1-.075-.2-.224-.324-.1-.2-.324-.25-.448-.4-.224-.449-.2-1.521-.324-1.995-1.319-.025-2.762-.15-4.18-.225-.1.599-.2 1.422-.449 2.046-.15.35-.323.624-.697.848-.597.35-1.294.4-1.592.325-.15-.025.1-.15.074-.275-.025-.15-.199-.025-.199-.2.448-.274.921-2.245 1.12-3.218 1.27-5.664 1.643-9.656 2.514-13.947.1-.4.323-.824.323-1.198.075-.524-.1-1.048.2-1.447.124-.224.846-.723 1.12-.748.273-.1.995-.2 1.343-.075.175.05.747.648.846.823zm-4.13 14.895c.945-.124 1.89-.15 2.96-.15-.497-2.769-1.12-6.91-1.418-7.934-.597 2.545-.97 5.465-1.543 8.084zM66.782.295c.025.1-.025.224 0 .324.025.2.1.025.15.125.099 1.597-.125 3.243-.075 4.915.1 2.27.199 4.067.199 6.96v2.296c.124 1.872.1 3.468-.373 4.99-.1.275-.274.5-.449.849-.1.224-.323.673-.497.723-.25.075-.498-.2-.747-.25-.274-.074-.522-.024-.722-.1-.87-.273-1.443-1.271-1.916-2.195-.796-1.547-1.344-3.218-2.04-4.89-.573-1.297-.996-3.194-1.544-4.466.224 2.046.373 5.165.274 7.435 0 .724-.075 1.747-.473 2.795-.348.948-1.17 1.671-2.514 1.422.598-1.747.523-10.355.498-12.9 0-1.297-.025-2.47-.025-3.917-.025-.374 0-2.02-.199-2.594-.15-.5-.274-.749.025-1.073.2-.2.97-.45 1.27-.474 1.194-.125 1.268.399 1.741.973a8.337 8.337 0 0 1 1.32 2.02c1.12 2.396 3.06 7.136 4.554 11.752-.025-3.019-.124-5.39-.2-8.009-.074-2.42-.024-5.539 1.32-6.836.025-.025.025-.1.1-.125.248-.075.124.374.323.25z"/></symbol><symbol id="hrvlogo" viewBox="0 0 168 40"><path fill="url(#a)" d="M0 0h167.18v40H0z"/><defs><pattern id="a" width="1" height="1" patternContentUnits="objectBoundingBox"><use transform="matrix(.0013 0 0 .00541 0 -.003)" xlink:href="#b"/></pattern></defs></symbol></svg>